<?xml version="1.0" standalone="no"?>
<!DOCTYPE svg PUBLIC "-//W3C//DTD SVG 20010904//EN"
 "http://www.w3.org/TR/2001/REC-SVG-20010904/DTD/svg10.dtd">
<svg version="1.0" xmlns="http://www.w3.org/2000/svg"
 width="1024.000000pt" height="1024.000000pt" viewBox="0 0 1024.000000 1024.000000"
 preserveAspectRatio="xMidYMid meet">
<metadata>
Created by potrace 1.14, written by Peter Selinger 2001-2017
</metadata>
<g transform="translate(0.000000,1024.000000) scale(0.100000,-0.100000)"
fill="#000000" stroke="none">
<path d="M0 5120 l0 -5120 5120 0 5120 0 0 535 0 536 -42 -1 c-24 -1 -59 3
-78 9 -39 12 -188 13 -267 2 -28 -4 -62 -3 -75 2 -12 5 -56 8 -96 8 -82 -1
-98 8 -108 58 -7 35 -24 42 -24 11 0 -25 -17 -26 -24 -2 -6 18 -51 44 -61 34
-3 -3 -5 -14 -5 -24 0 -26 -15 -22 -28 8 -7 14 -17 22 -23 18 -6 -3 -25 4 -42
16 -26 20 -34 21 -62 11 -45 -16 -65 -14 -65 8 0 27 -25 44 -68 45 -31 1 -37
-3 -40 -21 -4 -24 -21 -30 -39 -12 -28 28 -83 12 -83 -24 0 -18 -6 -22 -35
-23 -19 0 -33 2 -30 4 3 3 -3 11 -13 18 -14 10 -18 10 -24 -4 -5 -14 -7 -13
-7 5 -1 12 3 23 8 25 13 4 18 32 6 33 -5 0 -16 4 -23 9 -8 5 -18 4 -25 -3 -16
-16 -63 -13 -78 5 -10 12 -25 15 -59 12 -30 -3 -50 0 -58 9 -20 21 -39 15 -50
-14 -10 -27 -10 -26 -11 14 l-1 41 -52 5 c-29 3 -67 8 -84 12 -22 5 -35 2 -47
-9 -16 -17 -87 -20 -87 -4 0 15 -31 8 -37 -8 -4 -12 -9 -9 -19 15 -14 33 -56
51 -83 34 -9 -5 -29 -29 -44 -51 -16 -23 -32 -42 -37 -42 -5 0 -10 28 -12 63
-3 62 -3 62 -35 65 -26 3 -33 -1 -34 -15 0 -17 -1 -16 -8 1 -7 19 -8 19 -28
-1 l-21 -21 -6 24 c-11 42 -82 46 -102 6 -10 -21 -13 -22 -27 -7 -9 8 -18 11
-21 6 -3 -4 -17 -6 -31 -3 -22 4 -25 9 -25 48 l0 44 -38 0 c-21 0 -42 -3 -45
-7 -13 -12 -57 -9 -57 4 0 7 -11 13 -25 13 -15 0 -25 6 -25 14 0 39 -66 22
-75 -19 -3 -14 -7 -36 -10 -50 -5 -24 -30 -36 -79 -39 -18 -1 -22 -9 -27 -51
-4 -31 -6 2 -7 88 -2 132 -3 139 -27 162 -25 26 -55 33 -55 15 0 -6 -6 -10
-12 -8 -25 4 -56 -13 -62 -35 -3 -12 -6 -66 -6 -119 0 -100 -16 -137 -22 -50
-3 41 -6 47 -26 48 -13 1 -26 -5 -29 -12 -3 -8 -11 -14 -18 -14 -9 0 -14 22
-17 69 -2 39 -7 73 -11 77 -4 5 -29 0 -54 -9 -25 -9 -49 -15 -52 -11 -3 3 -8
48 -9 100 -4 89 -6 96 -27 104 -13 5 -26 14 -30 20 -4 7 -16 3 -36 -10 l-29
-21 0 -110 c0 -82 -3 -109 -13 -109 -7 0 -13 10 -14 21 -2 28 0 27 -66 30
l-59 3 -19 -54 c-10 -30 -19 -56 -19 -57 0 -2 -7 -3 -15 -3 -11 0 -15 19 -17
93 l-3 92 -29 3 -29 4 6 89 c5 77 3 91 -13 111 -16 19 -19 20 -20 6 0 -10 -13
-24 -29 -32 -16 -9 -32 -27 -35 -42 -7 -25 -10 -26 -50 -22 l-44 5 -6 -45 c-3
-25 -6 -78 -6 -118 l0 -74 -45 0 c-43 0 -50 -5 -46 -36 1 -7 -9 -9 -23 -7 -29
6 -36 33 -36 149 0 68 -3 84 -15 84 -10 0 -15 10 -15 33 0 27 -5 35 -30 44
-22 8 -32 8 -39 -1 -6 -7 -29 -18 -51 -25 l-40 -12 0 -58 c0 -33 -7 -71 -15
-87 -14 -27 -15 -16 -15 139 l0 167 -42 0 c-24 -1 -74 -12 -113 -25 l-70 -24
-3 -80 -3 -81 -43 0 c-45 0 -56 -10 -56 -51 0 -12 -7 -19 -20 -19 -12 0 -20
-7 -20 -17 0 -10 -5 -25 -11 -33 -7 -10 -8 10 -3 68 7 82 0 99 -26 67 -6 -7
-32 -17 -56 -21 l-44 -6 0 -54 c0 -30 -4 -54 -10 -54 -12 0 -19 30 -22 100 -3
52 -4 55 -30 57 -28 2 -28 1 -28 -62 0 -35 -4 -66 -9 -69 -4 -3 -6 68 -3 159
l5 165 -37 0 -36 0 -1 -232 c-2 -382 -13 -463 -20 -140 -4 217 -8 275 -19 282
-8 5 -17 7 -22 4 -4 -3 -6 26 -4 63 3 45 0 70 -7 75 -20 13 -87 9 -87 -4 0 -8
-15 -14 -36 -16 -20 -1 -40 -5 -45 -8 -5 -3 -9 -58 -9 -123 0 -65 -3 -152 -6
-194 -13 -146 -24 -76 -24 144 0 133 -4 228 -10 240 -6 10 -21 19 -34 19 -22
0 -41 23 -32 39 3 4 -9 13 -26 20 -30 14 -32 13 -66 -23 -33 -37 -34 -39 -27
-97 6 -47 4 -62 -9 -74 -13 -14 -16 -45 -16 -193 -1 -172 -1 -176 -18 -149
-14 22 -22 26 -43 22 -23 -5 -27 -2 -33 26 -3 17 -6 47 -6 65 0 38 -21 45 -56
19 -10 -8 -29 -15 -40 -15 -29 0 -34 -17 -34 -117 0 -77 -2 -84 -17 -77 -10 4
-31 7 -46 6 -15 -1 -25 3 -22 8 4 6 1 10 -4 10 -6 0 -11 6 -11 13 0 25 -17 39
-39 32 -18 -5 -21 -14 -22 -68 l-2 -62 -8 45 c-4 25 -8 109 -8 188 -1 119 -3
142 -16 142 -9 0 -15 9 -15 25 0 17 -9 29 -30 40 -17 9 -34 14 -38 11 -5 -3
-28 0 -51 5 -38 9 -46 7 -62 -10 -17 -18 -19 -38 -19 -171 0 -82 -3 -150 -6
-150 -3 0 -19 8 -36 17 -29 18 -29 18 -47 -6 -25 -33 -32 -15 -26 72 6 94 57
241 118 340 56 91 54 86 68 220 21 219 31 255 88 332 60 81 193 206 252 235
22 12 86 32 141 46 125 31 165 47 203 83 17 16 58 44 92 64 l62 36 7 -55 c10
-85 -9 -163 -48 -198 -31 -26 -31 -28 -8 -21 39 11 56 38 80 129 12 46 26 90
31 97 12 21 91 -60 142 -146 51 -84 135 -171 191 -196 23 -10 82 -23 131 -29
50 -6 128 -20 175 -31 103 -24 247 -27 306 -6 63 23 82 37 121 95 20 28 39 52
43 52 19 0 95 -66 123 -107 18 -25 37 -53 44 -62 6 -9 14 -13 18 -10 12 12
-69 131 -116 171 -40 34 -47 44 -38 59 7 15 21 19 59 19 75 0 340 48 369 67
14 9 33 25 42 35 9 10 26 18 38 18 12 0 21 6 20 13 -1 6 2 23 8 37 l10 24 13
-23 c22 -41 29 -78 17 -90 -6 -6 -30 -11 -53 -11 -24 0 -46 -5 -49 -10 -9 -14
68 -13 99 2 33 14 40 39 25 81 -11 30 -9 37 11 65 13 18 31 34 40 37 10 3 16
17 17 37 l2 33 -14 -30 c-8 -16 -14 -23 -14 -15 -1 25 36 98 80 158 23 31 39
49 36 40 -7 -21 24 -33 51 -19 22 12 33 5 52 -34 20 -40 40 -55 68 -50 43 7
83 -52 48 -72 -7 -4 -15 -22 -18 -39 -4 -29 -2 -32 24 -30 37 3 43 11 43 59 0
32 3 41 15 38 8 -2 31 -4 50 -4 25 0 42 -8 61 -28 19 -22 28 -26 37 -17 7 7
12 18 12 25 0 7 7 13 15 13 8 0 15 -5 15 -11 0 -6 16 1 35 16 23 17 42 24 53
20 16 -6 16 -7 0 -19 -10 -7 -18 -17 -18 -21 0 -4 7 -2 15 5 20 17 40 3 23
-18 -10 -12 -10 -14 0 -8 6 4 12 2 12 -3 0 -6 5 -11 12 -11 6 0 31 -10 55 -21
36 -17 55 -20 101 -15 31 4 75 8 97 10 66 7 103 23 139 60 18 20 46 39 62 42
37 7 84 43 67 51 -7 2 -13 9 -13 15 0 7 5 6 14 -1 10 -8 16 -8 23 1 17 22 21
67 7 85 -7 10 -13 23 -13 28 0 6 6 2 14 -8 13 -18 14 -17 29 11 9 17 39 51 68
76 48 42 52 48 52 93 1 31 7 53 17 63 20 18 55 134 63 205 2 28 5 51 5 53 1 2
6 0 11 -3 6 -3 10 4 10 16 0 12 3 20 6 17 3 -3 25 13 49 36 37 37 44 50 50 97
3 30 6 81 6 114 -1 33 -1 85 0 115 0 30 0 69 -1 86 0 16 8 56 18 88 16 50 17
67 7 132 -7 41 -9 74 -5 74 3 0 6 12 5 27 -1 16 0 19 2 7 6 -28 94 -58 128
-42 18 8 36 7 70 -2 46 -13 46 -13 80 20 28 27 39 31 62 26 84 -21 113 -22
154 -9 23 8 52 12 65 9 31 -8 104 -73 104 -93 0 -8 13 -19 29 -24 30 -10 51
-45 51 -82 0 -16 9 -26 29 -34 23 -8 32 -21 45 -66 12 -42 24 -60 45 -73 43
-25 55 -54 46 -111 -4 -26 -7 -64 -6 -83 1 -19 -4 -52 -11 -73 -11 -35 -9 -40
20 -81 18 -24 32 -53 32 -64 0 -11 16 -40 36 -64 43 -51 53 -58 71 -51 7 3 21
2 31 -2 9 -4 33 -7 52 -6 28 2 41 -4 64 -28 17 -17 35 -31 42 -31 16 0 54 -52
59 -81 2 -12 11 -27 20 -33 9 -6 19 -30 22 -53 4 -33 10 -43 29 -47 13 -4 31
-20 39 -36 9 -17 20 -30 24 -30 5 0 12 -14 16 -30 6 -25 12 -30 38 -31 18 -1
37 0 42 1 6 1 31 7 58 13 l47 12 0 3457 0 3458 -5120 0 -5120 0 0 -5120z
m5236 3838 c7 -5 14 -18 17 -29 4 -15 2 -19 -10 -15 -8 3 -35 6 -59 6 -50 0
-59 18 -22 44 22 16 51 13 74 -6z m14 -92 c0 -2 -8 -10 -17 -17 -16 -13 -17
-12 -4 4 13 16 21 21 21 13z m-20 -72 c0 -8 -8 -14 -17 -14 -10 -1 5 -9 32
-19 73 -26 115 -50 115 -65 0 -22 -12 -26 -34 -11 -27 19 -42 19 -26 0 7 -8 9
-15 4 -15 -13 1 -45 26 -39 31 6 7 -33 12 -80 11 -114 -3 -135 -5 -135 -13 0
-5 -13 -8 -29 -7 -45 3 -22 22 72 59 45 17 89 39 97 49 15 20 40 16 40 -6z
m97 -446 c-3 -8 -6 -5 -6 6 -1 11 2 17 5 13 3 -3 4 -12 1 -19z m2427 -27 c19
-7 19 -8 -2 -13 -12 -4 -22 -2 -22 3 0 5 -18 9 -40 9 -29 0 -40 -4 -40 -15 0
-9 -9 -15 -25 -15 -14 0 -27 0 -30 0 -3 0 -6 3 -7 8 -8 22 123 40 166 23z m66
-37 c0 -2 -9 0 -20 6 -11 6 -20 13 -20 16 0 2 9 0 20 -6 11 -6 20 -13 20 -16z
m-2483 -41 c-3 -10 -5 -2 -5 17 0 19 2 27 5 18 2 -10 2 -26 0 -35z m5 -57 c2
-19 0 -32 -4 -30 -8 5 -12 64 -4 64 2 0 6 -15 8 -34z m-319 -1 c-7 -21 -13
-19 -13 6 0 11 4 18 10 14 5 -3 7 -12 3 -20z m367 -112 c0 -21 -5 -45 -11 -53
-8 -11 -9 -7 -4 17 3 17 2 34 -4 37 -12 8 -3 36 10 36 5 0 9 -17 9 -37z m-372
-61 l2 -27 -15 29 c-18 35 -18 37 -2 30 7 -2 14 -17 15 -32z m339 23 c0 -8 -4
-12 -9 -9 -4 3 -8 0 -8 -7 0 -7 -3 -10 -6 -6 -8 8 3 37 14 37 5 0 9 -7 9 -15z
m-347 -125 c0 -5 -2 -10 -4 -10 -3 0 -8 5 -11 10 -3 6 -1 10 4 10 6 0 11 -4
11 -10z m24 -101 c-2 -4 0 -10 5 -13 5 -4 8 -25 6 -49 -11 -142 -15 -216 -15
-327 0 -148 1 -160 12 -160 4 0 8 -4 8 -10 0 -5 -7 -10 -15 -10 -8 0 -15 -7
-15 -15 0 -18 16 -20 23 -2 4 9 8 8 16 -3 11 -16 109 -19 133 -4 15 10 94 11
134 3 18 -4 38 -3 45 2 11 7 10 9 -3 10 -27 2 -31 4 -51 15 -20 12 -14 44 9
44 11 0 13 30 9 173 -5 192 -8 217 -33 255 -15 25 -15 26 0 14 15 -12 17 -8
24 48 4 33 9 58 12 55 3 -2 11 0 19 6 10 9 13 5 13 -19 0 -17 5 -34 10 -37 6
-4 8 -11 4 -16 -3 -5 -2 -9 3 -8 22 4 34 -2 27 -13 -5 -9 -2 -9 9 1 18 14 22
22 10 20 -21 -3 -34 2 -28 11 4 6 11 8 16 5 5 -4 9 -1 9 6 0 7 3 9 7 5 4 -3
13 4 20 16 9 18 12 19 13 6 0 -9 -5 -20 -11 -23 -23 -15 -4 -38 34 -40 33 -3
37 -1 32 16 -10 29 1 23 23 -15 15 -25 17 -37 9 -45 -8 -8 -8 -11 1 -11 7 0
12 3 13 8 0 4 2 17 3 29 3 27 13 39 24 28 4 -4 1 -10 -5 -12 -18 -6 -16 -23 1
-23 8 0 18 -5 22 -11 4 -8 -1 -9 -17 -5 -22 6 -22 5 6 -18 17 -14 38 -26 48
-26 11 0 17 -8 17 -22 0 -19 -2 -20 -11 -8 -9 13 -10 13 -6 0 2 -8 11 -15 20
-15 20 0 21 3 11 28 -4 12 0 23 12 32 22 16 32 1 14 -20 -9 -11 -9 -15 -1 -15
6 0 11 4 11 10 0 5 11 9 24 8 14 -1 22 -6 20 -10 -3 -5 -10 -5 -16 -2 -5 4 -5
-4 2 -16 11 -21 13 -21 22 -7 9 17 29 24 27 10 -3 -21 2 -33 13 -27 7 4 8 3 4
-5 -8 -12 12 -35 32 -37 33 -3 34 -4 21 -21 -7 -10 -10 -15 -5 -11 14 12 48
-12 42 -29 -5 -13 -4 -14 8 -4 8 7 19 10 25 7 5 -3 12 0 15 6 4 7 4 3 2 -10
l-4 -22 27 19 c21 15 28 17 28 6 0 -8 -4 -12 -9 -9 -4 3 -8 0 -8 -5 0 -10 28
-16 58 -12 8 1 20 -6 28 -16 14 -17 15 -17 9 5 -6 21 -5 21 19 11 14 -7 26
-18 26 -26 0 -12 15 -17 48 -16 6 1 12 -3 12 -7 0 -4 39 -20 86 -36 60 -20 88
-35 92 -47 3 -13 7 -15 12 -7 11 17 140 -27 140 -48 0 -10 4 -12 13 -4 8 7 40
-3 107 -34 52 -24 101 -42 108 -39 6 2 12 -1 12 -8 1 -7 6 -5 14 6 18 23 30
22 23 -3 -5 -19 22 -37 49 -32 7 1 15 -5 18 -14 3 -9 13 -14 20 -11 8 3 20 -1
26 -9 7 -8 19 -14 27 -14 8 0 11 -4 8 -10 -3 -5 0 -7 8 -4 8 3 22 -3 32 -12
10 -10 27 -19 38 -19 11 -1 25 -8 31 -16 6 -8 18 -15 26 -17 8 -2 21 -10 28
-19 6 -9 12 -13 12 -9 0 4 14 -6 31 -23 17 -17 38 -31 48 -31 9 0 24 -8 33
-17 20 -22 27 -27 109 -89 35 -27 66 -52 67 -56 2 -5 13 -8 23 -8 11 0 18 -4
15 -9 -7 -11 44 -45 65 -44 22 2 69 -48 51 -54 -6 -3 -9 -9 -6 -15 4 -6 1 -8
-7 -6 -8 3 -13 10 -12 15 3 15 -35 13 -48 -3 -7 -9 -9 -29 -5 -54 3 -22 3 -40
-1 -40 -4 0 -20 12 -36 28 -26 23 -28 24 -18 5 6 -12 17 -26 24 -30 6 -4 18
-16 25 -25 12 -15 10 -18 -20 -27 -20 -5 -25 -10 -13 -10 11 0 34 8 50 19 27
18 27 26 0 20 -5 -1 -5 4 2 11 10 10 15 9 28 -1 13 -11 14 -10 8 6 -6 17 -5
17 10 5 10 -8 20 -11 23 -8 3 3 -5 11 -18 18 -12 7 -25 10 -27 8 -2 -2 -5 6
-6 18 -2 24 20 21 29 -4 5 -12 9 -13 20 -4 10 9 16 9 21 1 5 -8 11 -7 22 2 14
11 15 10 9 -8 -6 -19 -2 -23 28 -28 19 -4 37 -13 40 -22 3 -8 11 -12 17 -8 8
4 9 3 5 -5 -10 -15 13 -43 27 -34 5 3 7 1 3 -5 -3 -6 0 -16 7 -24 7 -7 17 -25
24 -39 6 -15 29 -35 50 -45 26 -13 44 -32 59 -62 11 -23 23 -40 26 -36 4 3 4
-4 1 -17 -5 -17 -3 -21 9 -16 12 4 15 0 12 -16 l-5 -22 10 21 c5 12 20 29 33
38 22 16 24 15 62 -26 21 -24 36 -36 32 -28 -4 8 2 4 13 -9 12 -13 21 -34 21
-47 0 -12 5 -26 11 -30 6 -3 9 -22 7 -40 -2 -19 0 -34 4 -34 12 0 9 -28 -3
-32 -8 -3 -6 -9 4 -20 9 -8 13 -18 10 -22 -4 -3 3 -16 14 -29 13 -14 19 -31
16 -49 -2 -18 1 -28 9 -28 26 0 40 -19 79 -109 44 -103 72 -208 58 -217 -5 -3
-9 1 -10 8 0 11 -16 -17 -18 -33 -1 -4 19 -14 44 -23 34 -13 47 -24 52 -44 3
-15 12 -31 18 -37 11 -10 55 -122 55 -141 0 -5 -5 -2 -11 6 -9 12 -10 12 -5
-3 3 -10 6 -24 6 -30 0 -7 5 -6 11 3 9 12 10 11 6 -5 -2 -11 2 -27 10 -34 8
-7 12 -16 8 -19 -3 -4 -10 0 -16 8 -7 11 -8 6 -3 -14 6 -25 4 -28 -10 -23 -10
4 -25 7 -34 7 -14 1 -13 3 3 12 31 17 35 31 18 51 -13 14 -18 15 -26 5 -5 -8
-6 -2 -3 17 11 54 13 76 8 70 -3 -2 -11 3 -19 13 -13 15 -14 14 -10 -11 3 -21
1 -25 -6 -18 -8 8 -8 20 1 43 12 32 9 48 -10 48 -7 0 -6 -6 2 -15 12 -15 4
-20 -23 -16 -4 1 -10 -6 -13 -14 -11 -28 -23 -15 -14 15 6 20 5 29 -3 27 -6
-1 -11 9 -11 23 0 19 5 25 21 24 12 0 20 3 17 8 -10 16 -43 8 -59 -14 -17 -23
-17 -23 -10 10 4 20 2 38 -5 47 -6 8 -9 23 -5 35 4 12 2 20 -5 20 -7 0 -10 7
-6 15 3 8 -2 19 -12 24 -16 10 -16 10 1 11 15 0 16 3 6 21 -9 17 -13 19 -20 8
-7 -11 -9 -9 -10 6 0 15 -3 13 -11 -9 -9 -23 -8 -30 5 -37 24 -14 39 -71 27
-103 -13 -35 -13 -36 5 -30 8 4 15 1 15 -6 0 -6 -4 -8 -10 -5 -5 3 -10 3 -11
-2 0 -4 -2 -23 -5 -41 -3 -30 8 -68 25 -82 3 -3 14 -29 24 -58 14 -42 16 -56
6 -68 -9 -11 -8 -14 4 -14 8 0 17 5 19 10 6 18 48 -30 48 -54 0 -13 2 -39 5
-57 l5 -34 -10 32 c-11 35 -30 53 -30 29 0 -8 5 -18 10 -21 6 -4 8 -11 4 -16
-3 -6 -15 0 -28 13 -17 18 -20 30 -15 56 l7 32 -50 -5 c-51 -5 -53 -1 -20 38
8 9 12 20 9 24 -4 3 0 15 10 25 15 17 15 18 -1 18 -9 0 -15 -4 -12 -9 3 -5 -1
-11 -9 -15 -8 -3 -17 -1 -20 4 -4 6 -2 10 3 10 9 0 27 68 20 76 -2 2 -16 -3
-31 -11 -15 -8 -25 -10 -22 -5 4 6 2 10 -4 10 -5 0 -12 -8 -14 -17 -3 -11 -5
-7 -6 10 -1 19 3 26 10 21 7 -4 10 -1 7 7 -6 15 -10 15 -43 3 l-20 -7 20 16
c11 9 16 17 11 17 -5 0 -3 6 4 14 13 17 43 10 33 -8 -4 -8 -2 -7 7 1 8 7 10
18 4 30 -4 10 -9 32 -11 48 -6 64 -7 74 -11 70 -7 -7 -37 29 -50 59 -17 38
-25 28 -11 -13 14 -40 4 -106 -21 -138 -16 -21 -19 -22 -24 -6 -3 10 -4 5 -2
-10 3 -21 0 -27 -11 -23 -8 3 -19 6 -25 6 -6 0 -3 9 7 20 17 18 17 21 1 45 -9
14 -15 29 -12 33 7 12 -6 26 -34 39 -19 9 -21 12 -7 12 12 1 16 6 11 14 -4 6
5 1 19 -12 16 -14 27 -35 27 -50 1 -24 2 -25 14 -8 8 10 17 35 21 55 3 20 13
46 20 58 15 23 6 47 -16 42 -8 -2 -13 2 -12 9 2 7 -3 10 -11 7 -17 -6 -41 22
-26 31 5 3 10 12 10 18 0 7 -4 6 -10 -3 -7 -11 -10 -11 -10 -2 0 7 -4 11 -9 8
-10 -7 -9 -56 2 -73 4 -7 14 -10 21 -7 18 7 37 -19 33 -47 -3 -16 -12 -25 -27
-27 -14 -2 -20 0 -15 7 3 7 3 11 -2 10 -4 -1 -17 -1 -28 0 -19 2 -19 2 -2 15
16 12 15 14 -13 26 -36 15 -36 19 -9 54 11 14 17 26 12 26 -4 0 -1 5 7 10 12
7 12 12 2 22 -10 10 -15 10 -22 -2 -5 -8 -5 -19 0 -26 13 -14 2 -24 -27 -24
-28 0 -29 10 -3 33 23 19 25 33 8 43 -8 5 -9 2 -5 -9 8 -22 1 -21 -22 2 -18
18 -18 19 7 38 25 19 26 21 9 37 -9 10 -21 15 -26 12 -10 -7 -81 63 -81 79 0
6 4 4 8 -3 5 -7 16 -10 25 -6 10 3 24 1 32 -6 13 -11 15 -9 11 11 -3 13 -5 28
-5 33 -1 4 -8 6 -16 2 -8 -3 -14 -2 -14 2 4 22 -3 33 -16 28 -8 -3 -15 -1 -15
4 0 5 -8 6 -17 3 -17 -7 -17 -6 0 11 9 10 15 22 12 27 -4 5 1 9 10 9 28 0 55
-20 55 -40 0 -11 7 -20 15 -20 9 0 15 -9 14 -22 0 -22 -1 -22 -9 -3 -7 16 -9
17 -9 3 -1 -9 4 -20 9 -23 6 -4 8 -11 5 -16 -4 -5 -1 -9 5 -9 7 0 10 7 6 15
-8 21 22 19 60 -4 32 -20 32 -18 53 -156 11 -69 34 -95 61 -70 9 8 26 15 37
15 25 0 39 29 22 44 -9 8 -10 7 -5 -4 4 -8 0 -6 -8 4 -14 17 -20 16 -18 -5 2
-14 -26 -4 -37 14 -10 15 -10 17 0 11 9 -5 11 -1 7 14 -4 12 -2 20 2 17 5 -3
12 0 16 6 5 8 3 9 -6 4 -9 -6 -10 -1 -5 16 l6 24 -20 -25 c-17 -21 -21 -22
-26 -9 -3 9 -2 41 3 70 9 46 8 51 -3 35 -8 -10 -19 -15 -26 -10 -8 4 -10 3 -5
-4 4 -7 3 -12 -3 -12 -5 0 -12 14 -16 30 -5 22 -12 30 -28 30 -20 1 -21 2 -5
14 22 16 20 52 -3 52 -10 0 -15 -4 -13 -8 3 -4 1 -8 -5 -8 -16 0 -23 37 -12
59 9 17 8 20 -10 18 -16 -1 -19 -7 -16 -24 3 -19 2 -21 -9 -12 -8 6 -14 18
-14 26 0 8 -4 12 -9 9 -5 -3 -11 3 -14 14 -4 17 -1 20 21 18 18 -2 27 2 30 14
4 23 -18 46 -41 42 -9 -1 -17 4 -17 12 0 9 5 12 10 9 6 -3 10 -1 10 5 0 6 6 8
13 4 7 -4 9 -3 4 2 -13 14 -30 11 -49 -8 -19 -19 -24 -33 -9 -23 5 3 16 -4 24
-16 14 -19 13 -23 -1 -38 -16 -16 -19 -16 -39 -2 -24 17 -32 37 -10 26 6 -4 3
1 -8 10 -11 9 -19 21 -17 26 1 5 -2 9 -8 9 -5 0 -10 11 -10 25 0 27 47 77 64
68 6 -3 6 0 -1 7 -6 7 -9 20 -6 29 4 14 3 14 -6 1 -9 -13 -12 -12 -17 7 -4 13
-10 20 -15 17 -5 -3 -7 -10 -4 -15 4 -5 1 -9 -4 -9 -6 0 -11 7 -11 15 0 8 -4
15 -10 15 -5 0 -6 -7 -3 -17 5 -11 3 -14 -6 -9 -7 5 -11 16 -8 26 3 12 0 17
-8 13 -8 -2 -18 5 -25 16 -15 29 -30 26 -30 -4 0 -14 5 -25 11 -25 6 0 8 9 4
23 -5 18 -3 17 14 -7 11 -17 17 -34 14 -39 -3 -6 -1 -7 5 -3 7 4 12 4 12 -1 0
-4 3 -18 6 -30 6 -23 -7 -26 -36 -8 -19 12 -51 14 -44 3 3 -4 1 -8 -5 -8 -5 0
-13 5 -16 11 -4 6 -13 8 -21 5 -8 -3 -14 -1 -14 4 0 10 7 12 53 12 52 1 24 40
-31 43 -20 1 -21 -1 -8 -11 9 -6 13 -14 9 -18 -9 -9 -43 24 -44 43 0 10 -2 12
-6 4 -7 -18 -23 -16 -23 2 0 8 -5 15 -11 15 -6 0 -9 -7 -5 -15 3 -8 1 -15 -4
-15 -6 0 -10 -4 -10 -8 0 -4 15 -8 32 -7 28 0 33 -4 35 -27 1 -16 -3 -28 -8
-28 -5 0 -2 -11 6 -24 17 -26 51 -40 61 -25 3 5 2 8 -3 7 -8 -3 -13 5 -13 20
0 4 9 8 20 8 11 0 20 -5 20 -11 0 -5 16 -23 35 -38 19 -15 35 -35 35 -44 0
-13 -3 -13 -15 -3 -12 10 -16 8 -23 -11 l-9 -24 -9 25 c-4 14 -8 29 -9 35 0 5
-14 10 -31 10 -21 0 -31 -4 -30 -14 1 -7 -5 -16 -13 -19 -10 -3 -12 0 -7 14 4
10 4 15 0 11 -4 -4 -13 -2 -21 4 -16 14 -18 -2 -2 -18 9 -9 7 -12 -9 -10 -13
1 -20 8 -19 19 1 10 5 18 9 18 8 0 3 34 -8 52 -5 7 -3 8 6 3 8 -5 11 -3 8 6
-3 8 -11 13 -17 11 -6 -1 -11 5 -11 15 0 15 2 14 19 -2 19 -16 20 -16 19 1 -2
23 -46 29 -50 7 -2 -11 -10 -7 -28 13 -14 15 -19 24 -11 19 11 -6 13 -4 8 9
-6 14 -3 16 15 10 16 -5 20 -3 15 9 -3 9 1 18 9 21 12 5 11 9 -6 26 -24 24
-49 28 -30 5 9 -10 9 -15 1 -15 -6 0 -12 5 -12 10 -1 6 -3 13 -4 18 -2 4 -6
17 -10 30 -9 27 -20 28 -42 3 -9 -11 -23 -17 -32 -13 -13 4 -12 0 4 -19 11
-13 16 -21 11 -16 -5 4 -20 0 -32 -8 -24 -16 -26 -15 -51 32 -9 17 -8 21 2 17
7 -3 16 -1 19 5 4 5 -3 12 -14 16 -12 4 -19 14 -18 23 3 17 -1 17 -44 5 -12
-4 -21 3 -27 18 -5 13 -10 19 -10 13 -1 -19 -45 -10 -49 10 -2 11 0 16 7 12
10 -7 -25 82 -39 97 -4 5 -15 9 -24 11 -9 1 -25 12 -37 24 -11 12 -24 20 -29
17 -6 -3 -7 1 -4 9 4 11 0 16 -15 16 -12 0 -21 5 -21 10 0 6 4 10 10 10 5 0 7
7 4 15 -4 8 -9 13 -13 10 -12 -7 -43 54 -35 68 6 9 4 9 -8 -1 -19 -15 -48 -6
-48 17 1 14 2 14 11 -1 5 -10 14 -18 19 -18 12 0 1 61 -13 75 -7 7 -8 6 -3 -2
4 -7 2 -13 -4 -13 -6 0 -8 -4 -5 -10 16 -26 -25 -6 -50 24 -26 31 -30 33 -42
18 -14 -19 -17 -36 -5 -28 4 2 14 1 21 -4 10 -6 8 -9 -8 -15 -25 -8 -26 -18
-4 -52 14 -21 14 -25 3 -21 -8 3 -13 12 -12 19 2 8 0 10 -5 6 -15 -16 -8 -32
22 -47 17 -9 29 -20 28 -26 -1 -5 9 -11 22 -12 16 -1 23 3 20 11 -6 16 15 41
40 50 19 7 19 6 2 -7 -13 -10 -17 -21 -12 -37 6 -17 9 -19 16 -8 5 8 9 9 9 4
0 -6 -5 -16 -11 -22 -7 -7 -6 -15 4 -25 13 -13 13 -16 -3 -26 -20 -12 -40 1
-40 28 0 21 -69 25 -77 4 -4 -12 -8 -11 -20 6 -15 21 -16 21 -36 3 -20 -17
-20 -17 -14 0 4 11 9 31 12 45 5 27 5 27 -9 -2 -7 -16 -16 -24 -20 -18 -3 6
-2 13 4 17 6 4 8 11 4 16 -3 5 -10 6 -16 3 -7 -5 -9 -1 -5 9 4 11 1 17 -7 17
-11 0 -12 -8 -6 -35 4 -19 6 -35 4 -35 -2 0 -7 0 -10 1 -4 0 -11 -5 -16 -13
-8 -10 -9 -10 -5 2 5 20 -20 43 -38 36 -13 -4 -13 -2 -5 14 6 12 17 17 28 14
14 -5 14 -4 2 4 -8 6 -18 8 -22 6 -12 -8 -10 50 2 62 7 7 6 11 -4 11 -8 0 -13
-4 -10 -8 2 -4 -20 -7 -50 -6 -43 2 -52 0 -44 -10 6 -7 9 -13 7 -14 -2 0 -19
-2 -37 -3 -19 -1 -37 -8 -41 -15 -6 -10 -10 -9 -14 3 -4 9 -10 15 -14 14 -5
-2 -19 7 -31 18 l-23 21 27 -5 c23 -4 26 -2 20 13 -5 14 -2 16 13 12 12 -3 18
0 17 9 -3 19 -16 30 -16 14 0 -9 -5 -8 -19 4 -19 18 -47 14 -35 -5 3 -5 10 -6
16 -3 7 5 8 2 3 -5 -4 -7 -16 -11 -26 -8 -10 3 -20 0 -22 -6 -2 -6 -16 1 -32
16 -23 21 -27 29 -17 39 12 12 63 19 56 6 -2 -3 0 -9 6 -13 5 -3 10 3 10 15 0
12 5 18 10 15 6 -4 8 -11 5 -16 -9 -14 3 -11 24 8 11 9 18 20 15 24 -5 9 23 6
32 -3 3 -4 12 -4 19 -2 8 3 18 -3 24 -14 16 -30 40 -52 57 -52 8 0 13 4 9 9
-3 5 -1 12 5 16 5 3 14 -5 20 -19 5 -14 12 -26 14 -26 3 0 3 7 0 15 -5 13 -2
14 19 6 14 -5 27 -7 30 -5 8 8 -4 44 -15 44 -6 0 -5 7 2 15 9 11 10 18 1 28
-6 8 -8 17 -4 21 12 12 13 47 3 64 -9 14 -10 12 -4 -8 6 -23 6 -24 -12 -10
-25 20 -43 43 -38 51 2 3 -9 12 -24 20 -60 31 -101 62 -95 73 3 6 3 8 -2 4
-14 -13 -45 11 -38 29 6 15 5 16 -9 3 -9 -8 -14 -18 -11 -22 2 -4 -3 -5 -12
-1 -13 5 -14 7 -3 14 11 7 10 11 -2 19 -23 15 -36 12 -36 -10 0 -11 4 -20 8
-20 4 0 23 -13 41 -30 19 -16 39 -30 45 -30 6 0 14 -5 17 -11 8 -13 -26 -40
-40 -32 -5 4 -7 3 -3 -2 4 -4 3 -14 -3 -22 -9 -10 -8 -13 2 -13 11 0 11 -2 -1
-10 -11 -7 -17 -5 -22 8 -6 15 -7 15 -7 1 -1 -20 23 -41 35 -31 5 4 6 3 1 -2
-10 -13 -48 -15 -40 -3 4 6 -1 8 -10 4 -16 -6 -16 -4 -2 23 18 35 21 74 4 50
-9 -13 -10 -13 -6 0 2 8 12 14 21 12 13 -2 15 1 7 15 -5 10 -12 26 -15 36 -4
14 -10 16 -23 9 -19 -11 -67 14 -57 29 3 5 0 9 -6 9 -6 0 -9 4 -5 9 3 5 0 13
-6 17 -9 5 -10 0 -7 -14 7 -26 0 -27 -29 -7 -21 14 -23 14 -36 -7 -15 -24 -30
-88 -21 -88 14 0 79 32 87 43 6 8 7 4 4 -11 -4 -18 -3 -21 8 -12 21 17 28 -6
10 -33 -8 -13 -13 -33 -10 -43 3 -10 -3 -3 -12 16 -24 46 -51 52 -45 10 4 -27
1 -30 -21 -30 -32 0 -43 -16 -26 -36 9 -11 22 -14 41 -10 25 5 28 3 27 -22 -1
-17 -3 -20 -6 -9 -6 24 -18 21 -46 -12 -14 -17 -29 -27 -33 -23 -5 4 -4 2 1
-5 15 -17 59 -28 50 -13 -5 9 -4 11 4 6 15 -10 4 -26 -18 -26 -10 0 -21 -9
-24 -20 -5 -21 -27 -28 -27 -8 0 6 -8 20 -17 31 -13 15 -14 18 -3 12 8 -4 2 6
-14 23 -30 32 -43 41 -31 22 3 -5 2 -10 -2 -10 -5 0 -14 10 -22 22 -13 21 -14
21 -27 3 -13 -18 -10 -40 5 -31 4 3 8 -1 8 -9 0 -11 -4 -12 -13 -4 -7 6 -18 8
-24 4 -5 -3 -10 2 -10 12 0 23 -61 26 -68 3 -3 -8 -14 -21 -24 -28 -14 -10
-16 -17 -8 -27 8 -9 6 -14 -5 -19 -12 -4 -14 0 -11 20 3 17 1 24 -7 21 -19 -6
-20 -33 -1 -51 9 -9 14 -20 11 -23 -9 -8 -56 48 -63 75 -3 12 -10 22 -16 22
-5 0 -6 -5 -3 -10 4 -6 1 -9 -7 -8 -9 2 -13 -8 -12 -34 0 -41 -6 -47 -26 -23
-11 13 -10 14 4 9 21 -8 20 0 -1 22 -21 21 -26 47 -8 40 9 -3 13 2 12 15 -1
21 -13 25 -20 7 -3 -7 -4 -3 -4 9 1 12 6 19 12 15 5 -3 4 2 -4 11 -19 23 -32
11 -26 -23 3 -16 1 -32 -5 -35 -6 -4 -7 1 -3 12 3 10 3 15 -2 11 -4 -4 -14 0
-21 10 -12 16 -13 16 -19 0 -9 -22 1 -51 15 -43 5 3 10 1 10 -4 0 -14 -1 -14
-38 5 -34 16 -44 28 -15 17 10 -4 14 -2 10 4 -9 15 3 44 14 37 13 -8 11 10 -3
24 -19 19 -26 14 -31 -20 -4 -29 -5 -31 -11 -11 -5 12 -15 24 -23 28 -13 4
-14 3 -3 -10 11 -13 10 -14 -3 -10 -8 4 -18 1 -22 -5 -6 -9 -10 -9 -16 1 -7
11 -9 9 -10 -6 -1 -11 -1 -23 -1 -26 1 -3 -5 -6 -13 -6 -8 0 -11 5 -8 10 3 5
0 8 -7 5 -7 -2 -14 -12 -16 -22 -1 -10 -7 -23 -13 -29 -16 -16 -13 -27 7 -27
11 0 27 -9 36 -19 17 -18 16 -19 -3 -26 -11 -3 -29 -1 -41 5 -16 9 -20 8 -22
-7 0 -10 -2 -22 -3 -28 -2 -5 -3 -17 -4 -25 -1 -10 -7 -6 -16 10 -7 14 -16 24
-19 23 -14 -6 -26 -2 -26 8 0 8 6 7 18 -2 15 -12 16 -12 5 2 -7 9 -10 19 -6
22 11 12 21 8 27 -10 2 -10 4 2 4 27 0 63 0 64 16 51 10 -8 16 -9 21 -1 3 5
-1 13 -9 16 -18 7 -49 -14 -40 -27 3 -5 0 -9 -5 -9 -6 0 -11 -6 -11 -14 0 -7
-7 -19 -15 -26 -8 -7 -15 -21 -15 -31 0 -11 -4 -19 -10 -19 -5 0 -10 -6 -10
-14 0 -24 -21 -30 -27 -7 -3 11 -16 27 -30 37 -14 9 -23 11 -19 6 3 -6 2 -13
-3 -17 -6 -3 -7 -13 -4 -21 5 -13 7 -13 14 -2 6 9 9 9 9 1 0 -7 -9 -17 -20
-23 -11 -6 -20 -8 -20 -4 0 20 -26 -19 -28 -42 -1 -15 1 -24 5 -20 5 4 8 17 8
28 0 12 7 22 18 24 25 3 22 -33 -5 -48 -13 -7 -29 -11 -35 -10 -7 2 -13 -3
-13 -9 0 -7 -3 -9 -6 -6 -4 4 -2 13 5 20 8 11 6 18 -9 32 -26 24 -26 38 1 30
13 -5 19 -3 15 3 -3 5 1 13 10 16 15 6 15 8 -1 26 -9 10 -20 18 -24 17 -3 -1
-6 1 -6 4 0 12 -28 39 -40 39 -8 0 -11 -9 -9 -22 4 -19 3 -20 -4 -5 -10 23
-15 25 -34 10 -12 -11 -14 -9 -13 9 2 27 22 35 27 11 3 -16 6 -15 17 6 7 13 9
21 3 17 -5 -3 -9 6 -9 19 0 18 5 25 18 25 12 0 19 7 19 20 0 17 4 19 27 14 22
-6 25 -4 20 10 -5 11 -3 15 5 10 6 -4 8 -3 4 4 -3 6 -2 13 3 17 6 3 8 -6 5
-22 l-5 -28 16 23 c9 12 20 20 24 18 4 -3 8 1 8 8 0 7 -11 12 -26 11 -40 -2
-86 10 -84 23 3 12 -64 28 -74 18 -4 -3 5 -6 20 -6 14 0 28 -4 31 -8 3 -5 -11
-7 -30 -6 -20 2 -32 -1 -29 -6 8 -13 3 -12 -30 0 -23 9 -30 7 -46 -12 -26 -32
-24 -38 11 -34 23 3 33 -2 41 -17 10 -17 9 -19 -5 -14 -8 3 -18 2 -20 -2 -3
-5 -17 -8 -31 -8 -13 0 -22 3 -19 8 7 13 -5 49 -17 49 -5 0 -9 -8 -7 -17 2
-12 -4 -19 -19 -21 -13 -2 -23 -8 -23 -13 0 -6 4 -8 9 -4 11 6 36 -34 26 -43
-3 -3 -8 3 -11 15 -6 21 -34 22 -34 1 0 -5 5 -6 12 -2 8 5 9 0 6 -14 -4 -12
-3 -20 2 -17 4 3 10 -2 13 -9 7 -17 -16 -39 -28 -28 -5 4 2 -8 14 -25 25 -37
38 -44 21 -13 -9 16 -8 20 5 20 9 0 14 -4 11 -9 -8 -13 17 -76 31 -78 7 -2 12
0 12 5 -5 27 1 34 19 22 9 -7 3 1 -14 18 -20 19 -29 34 -24 42 6 10 11 8 21
-8 10 -16 17 -18 26 -10 15 12 25 -6 19 -37 -2 -11 1 -28 6 -39 7 -13 6 -21
-2 -26 -7 -5 -10 -15 -7 -23 3 -9 -1 -18 -9 -21 -20 -8 -17 -26 4 -20 16 5 16
5 -1 -9 -11 -9 -15 -22 -11 -33 4 -15 4 -16 -4 -5 -9 12 -11 12 -15 0 -2 -8
-3 -2 -1 13 2 15 0 27 -4 26 -4 -1 -15 2 -25 7 -15 6 -16 10 -5 16 10 7 10 9
-2 9 -8 0 -21 9 -28 20 -7 11 -18 17 -27 14 -12 -5 -13 -9 -4 -20 9 -12 9 -13
-3 -9 -10 4 -28 -6 -48 -27 -18 -18 -29 -27 -25 -19 6 10 4 12 -6 6 -23 -15
-47 -13 -45 4 1 9 23 27 49 40 28 13 47 30 47 40 0 13 -2 13 -9 2 -9 -15 -51
-7 -51 10 0 27 -20 -6 -21 -34 -1 -31 -1 -31 -9 -7 -4 14 -8 19 -9 11 -1 -8
-4 -12 -7 -8 -4 3 -1 20 5 38 14 42 9 46 -23 16 -27 -25 -34 -47 -14 -47 6 0
1 -9 -12 -20 -21 -18 -22 -22 -8 -38 14 -15 31 -72 21 -72 -2 0 -8 10 -13 23
l-9 22 0 -24 c-1 -18 -4 -21 -14 -13 -7 6 -25 13 -39 16 -23 4 -28 -1 -41 -32
-16 -39 -6 -68 20 -58 7 3 13 -1 13 -9 0 -8 -4 -15 -9 -15 -5 0 -7 -8 -4 -19
6 -22 -35 -64 -54 -57 -7 3 -13 1 -13 -4 0 -6 -9 -1 -21 11 -14 14 -30 20 -49
17 -16 -2 -27 -1 -25 2 3 4 -12 16 -33 26 -20 10 -39 22 -40 27 -2 4 -9 4 -14
1 -6 -4 -8 -2 -5 3 7 11 -40 57 -87 88 -21 14 -27 13 -70 -5 -27 -12 -62 -20
-82 -18 -30 3 -38 8 -50 38 l-14 35 21 -27 c29 -39 82 -38 135 2 21 16 44 30
50 30 7 0 40 -28 75 -62 35 -34 57 -58 49 -53 -8 4 -2 -5 13 -22 19 -20 46
-34 81 -43 61 -14 81 -8 66 20 -8 16 -6 18 20 16 35 -3 36 -1 10 26 -15 16
-18 32 -16 70 4 46 16 81 16 45 0 -20 19 -23 25 -4 11 31 9 52 -3 49 -8 -1
-11 2 -7 8 3 6 10 8 14 6 4 -3 7 7 6 22 0 22 -5 27 -23 25 -23 -3 -23 -3 -5
27 16 28 19 29 69 24 48 -6 55 -4 78 21 18 19 24 35 21 51 -3 13 -7 35 -10 49
-6 29 -82 72 -140 79 -46 6 -58 16 -19 16 l29 0 -30 25 c-16 13 -34 24 -39 25
-6 0 -1 -7 10 -16 16 -13 16 -15 2 -10 -10 3 -30 -5 -48 -20 -17 -15 -35 -22
-41 -18 -8 5 -10 2 -7 -7 4 -10 -1 -15 -14 -16 -10 -1 -22 5 -25 13 -5 13 -7
13 -22 0 -17 -16 -61 -11 -61 6 0 5 -4 7 -9 3 -5 -3 -11 7 -13 22 -2 20 -9 29
-26 31 -15 2 -22 8 -18 18 7 18 -15 14 -31 -6 -11 -13 -12 -12 -13 8 0 12 -4
22 -10 22 -5 0 -10 7 -10 16 0 14 3 14 15 4 10 -9 15 -9 15 -1 0 6 -2 11 -4
11 -2 0 -11 3 -20 6 -11 4 -16 0 -16 -13 0 -10 -9 -24 -21 -31 -14 -9 -19 -20
-16 -33 3 -10 2 -17 -3 -14 -4 3 -10 -2 -14 -10 -3 -8 -11 -13 -18 -10 -19 7
-39 -9 -41 -33 0 -11 -4 -19 -8 -16 -4 2 -6 15 -5 28 2 14 -1 30 -6 38 -7 10
-8 8 -4 -4 3 -12 0 -18 -9 -18 -11 0 -12 -6 -6 -22 9 -24 5 -48 -8 -48 -4 0
-7 10 -7 23 1 17 -5 22 -24 22 -20 0 -26 -7 -33 -37 -5 -23 -16 -38 -28 -41
-20 -5 -26 7 -9 18 5 3 7 12 3 21 -5 13 -7 12 -17 -2 -11 -14 -13 -14 -25 0
-7 8 -10 19 -7 25 4 5 -2 11 -11 13 -10 2 -18 10 -19 18 -3 46 -5 53 -11 46
-5 -4 -8 -13 -8 -18 0 -6 -6 -13 -13 -16 -7 -2 -10 2 -6 11 3 9 -3 16 -18 20
-21 6 -42 -9 -33 -24 3 -3 -5 -15 -18 -25 -21 -19 -21 -19 -7 0 11 15 12 18 1
12 -8 -5 -16 -3 -22 5 -7 12 -10 12 -21 0 -11 -12 -10 -13 2 -6 9 5 12 4 7 -1
-5 -5 -16 -9 -25 -9 -12 0 -16 -7 -14 -25 4 -21 2 -22 -12 -11 -13 11 -17 11
-22 -2 -3 -9 -12 -13 -20 -10 -8 3 -14 2 -12 -3 2 -5 -1 -10 -7 -11 -5 -1 -10
6 -9 16 0 10 -6 18 -13 18 -8 0 -12 -6 -9 -14 4 -11 1 -11 -14 -3 -11 6 -20
16 -20 23 0 7 -5 4 -11 -5 -5 -10 -15 -18 -20 -18 -6 0 -7 5 -3 12 4 7 3 8 -4
4 -7 -4 -12 -15 -12 -24 0 -15 -2 -15 -10 -2 -8 13 -10 12 -10 -2 0 -10 -4
-18 -10 -18 -11 0 -8 -36 5 -47 4 -5 5 2 2 15 -3 12 -1 22 4 22 15 0 10 -40
-6 -46 -8 -4 -13 -9 -10 -13 2 -4 -6 -23 -19 -42 -13 -19 -22 -40 -20 -47 1
-7 0 -8 -3 -2 -2 5 -19 -1 -37 -15 -18 -14 -37 -25 -42 -25 -5 0 -20 -10 -34
-21 -14 -11 -19 -18 -12 -14 15 8 16 -7 0 -23 -9 -9 -6 -11 11 -7 12 2 19 0
16 -6 -4 -5 -10 -7 -15 -4 -5 3 -10 -7 -12 -22 -2 -16 -7 -26 -13 -23 -5 3 -9
7 -8 10 1 3 4 12 8 20 4 11 -1 16 -15 16 -11 0 -20 -4 -20 -8 0 -9 -67 -38
-84 -37 -6 0 1 6 16 13 32 14 88 62 88 76 0 6 6 10 13 10 20 1 113 63 100 67
-21 7 -14 23 8 20 12 -1 24 4 27 12 3 10 -1 12 -17 8 -24 -6 -24 -7 -11 29 9
24 9 25 -5 14 -8 -7 -15 -9 -15 -5 0 4 -7 2 -15 -5 -12 -10 -13 -16 -4 -26 8
-10 8 -14 0 -15 -6 -1 -15 -3 -21 -4 -5 -1 -13 -3 -17 -4 -5 -1 -1 -6 7 -12
12 -8 12 -9 -4 -7 -13 2 -30 -11 -52 -39 -18 -24 -34 -37 -36 -31 -3 8 -11 4
-23 -10 -11 -12 -25 -22 -33 -22 -7 0 -10 -5 -6 -12 4 -7 3 -8 -4 -4 -23 14
27 78 65 82 28 3 56 30 47 45 -3 5 6 13 19 18 13 5 27 16 30 24 4 12 0 14 -21
11 -14 -3 -32 -10 -39 -16 -8 -6 -16 -8 -20 -5 -3 4 9 13 28 21 19 8 37 18 41
22 13 12 -13 34 -39 34 -13 0 -26 7 -29 15 -4 8 -10 12 -15 9 -15 -9 -10 3 8
17 9 8 14 9 10 3 -4 -7 0 -17 8 -24 8 -7 16 -10 16 -6 9 43 21 66 41 77 16 8
19 8 13 -1 -6 -9 -3 -10 10 -2 10 5 20 17 21 26 1 9 -2 14 -7 10 -5 -3 -6 -10
-3 -16 4 -6 2 -8 -3 -5 -6 4 -13 15 -16 26 -4 15 -1 18 12 13 14 -5 14 -4 1
13 -8 10 -10 16 -4 12 7 -4 14 0 18 8 3 8 12 15 20 15 19 0 59 57 51 71 -4 6
-14 8 -22 5 -8 -3 -11 -1 -8 4 3 6 13 10 21 10 8 0 26 7 39 16 13 9 30 17 37
18 16 4 57 20 105 43 21 10 96 36 166 58 123 39 128 41 123 65 -5 25 -5 25 6
2 7 -13 18 -21 27 -18 9 2 68 17 131 32 63 15 116 31 118 35 2 4 11 5 21 2 10
-2 24 2 32 10 8 8 26 13 39 12 14 -1 30 0 35 4 6 3 16 6 24 8 8 1 18 8 22 15
7 10 9 10 9 0 0 -9 5 -10 18 -4 9 5 22 8 28 5 11 -4 31 15 33 30 1 4 2 6 4 5
1 -2 16 7 34 20 22 15 30 28 27 40 -5 13 -4 14 4 3 6 -8 17 -11 27 -7 13 5 16
2 11 -9 -3 -10 -2 -13 5 -10 5 4 16 2 23 -4 10 -8 12 -4 9 17 -2 18 5 37 22
57 18 21 25 25 25 13 0 -12 6 -15 23 -10 27 7 42 21 51 50 11 33 28 27 22 -8
-2 -17 0 -28 5 -24 5 3 7 9 4 14 -3 5 -1 11 4 15 6 3 7 13 4 22 -4 10 -2 14 4
10 6 -4 14 0 17 9 3 8 10 12 16 9 5 -3 21 6 35 21 15 17 25 22 25 13 1 -9 7
-6 20 9 11 13 21 18 25 12 10 -17 25 -1 26 28 1 16 5 6 10 -22 4 -28 6 -53 3
-57z m166 29 c6 -40 20 -123 31 -184 23 -132 27 -359 7 -351 -7 2 -25 -2 -40
-9 -16 -8 -39 -11 -57 -8 -33 7 -37 14 -19 32 8 8 8 15 1 24 -16 19 1 299 26
441 12 65 21 120 21 123 0 2 4 4 9 4 5 0 14 -33 21 -72z m-680 -223 c0 -7 -7
-16 -16 -19 -26 -10 -34 -7 -27 10 5 13 7 13 14 2 6 -9 9 -6 9 10 0 13 4 20
10 17 6 -3 10 -12 10 -20z m-67 -27 c-4 -8 -33 -11 -33 -4 0 2 3 11 6 20 5 12
9 13 19 3 7 -7 11 -15 8 -19z m-193 -8 c0 -5 -5 -10 -11 -10 -5 0 -7 5 -4 10
3 6 8 10 11 10 2 0 4 -4 4 -10z m120 -11 c0 -6 -4 -7 -10 -4 -5 3 -10 11 -10
16 0 6 5 7 10 4 6 -3 10 -11 10 -16z m-725 -159 c3 -5 1 -10 -4 -10 -6 0 -11
5 -11 10 0 6 2 10 4 10 3 0 8 -4 11 -10z m2786 -173 c-10 -9 -11 -8 -5 6 3 10
9 15 12 12 3 -3 0 -11 -7 -18z m-2983 -8 c10 -13 5 -19 -31 -38 -37 -20 -39
-20 -17 -2 14 11 26 25 26 30 1 6 2 16 3 23 0 6 2 9 4 7 1 -2 8 -11 15 -20z
m3172 -76 c9 -12 21 -19 25 -15 5 4 5 1 1 -5 -4 -7 -22 -13 -41 -13 -19 0 -37
-5 -40 -10 -4 -6 -10 -8 -15 -5 -4 3 -10 -2 -14 -10 -3 -8 -11 -15 -18 -15 -9
0 -9 3 -2 8 6 4 14 16 17 26 7 17 6 17 -9 5 -16 -13 -16 -12 -5 9 7 14 8 22 1
22 -5 0 -1 9 10 20 12 12 18 26 14 32 -12 19 57 -26 76 -49z m251 24 c-10 -9
-11 -8 -5 6 3 10 9 15 12 12 3 -3 0 -11 -7 -18z m-3421 -2 c0 -8 -4 -15 -10
-15 -5 0 -7 7 -4 15 4 8 8 15 10 15 2 0 4 -7 4 -15z m2871 -8 c-10 -9 -11 -8
-5 6 3 10 9 15 12 12 3 -3 0 -11 -7 -18z m-2896 -25 c-3 -3 -11 0 -18 7 -9 10
-8 11 6 5 10 -3 15 -9 12 -12z m492 -27 c0 -8 -4 -12 -9 -9 -5 3 -6 10 -3 15
9 13 12 11 12 -6z m1361 -5 c19 0 22 -3 13 -13 -6 -8 -7 -18 -3 -22 4 -5 -8 2
-26 14 -29 20 -33 21 -48 7 -17 -17 -27 -20 -38 -9 -4 4 8 15 26 24 20 11 37
14 43 8 5 -5 20 -9 33 -9z m1396 -6 c5 -12 1 -14 -15 -9 -13 5 -19 3 -15 -3 3
-5 -1 -12 -9 -16 -23 -8 -18 11 7 28 27 19 25 19 32 0z m-3359 -16 c5 4 5 1 1
-6 -6 -10 -11 -10 -22 -1 -8 6 -14 14 -14 16 0 3 6 0 13 -6 8 -6 18 -7 22 -3z
m1345 -19 c0 -5 4 -8 8 -5 5 3 9 -1 9 -8 0 -10 -6 -10 -24 -2 -26 12 -30 26
-8 26 8 0 15 -5 15 -11z m552 0 c10 0 20 -5 23 -10 9 -14 -24 -23 -39 -10 -8
7 -19 10 -26 9 -7 -2 -15 3 -18 11 -3 11 1 12 19 7 13 -4 32 -8 41 -7z m1165
-9 c1 -11 -7 -16 -25 -17 -15 0 -19 1 -9 4 9 2 17 9 17 14 0 6 -4 7 -10 4 -5
-3 -10 -2 -10 4 0 17 36 8 37 -9z m53 12 c0 -4 -9 -8 -20 -8 -11 0 -20 4 -20
8 0 4 9 8 20 8 11 0 20 -4 20 -8z m-2187 -37 c-23 -32 -42 -39 -36 -14 3 10 9
17 13 14 4 -3 13 2 20 10 20 24 22 17 3 -10z m1780 10 c-3 -9 -8 -14 -10 -11
-3 3 -2 9 2 15 9 16 15 13 8 -4z m-1398 -23 c-8 -8 -25 10 -19 20 4 6 9 5 15
-3 4 -7 6 -15 4 -17z m1550 18 c3 -5 1 -10 -4 -10 -6 0 -11 5 -11 10 0 6 2 10
4 10 3 0 8 -4 11 -10z m-1923 -69 c-7 -20 -7 -32 1 -41 9 -10 8 -12 -6 -7 -12
5 -20 1 -24 -11 -4 -9 -16 -25 -27 -35 -12 -11 -20 -26 -18 -35 2 -14 1 -15
-7 -2 -8 12 -17 9 -53 -17 -23 -17 -49 -45 -58 -62 -18 -37 -29 -40 -22 -6 3
16 26 42 63 71 33 25 59 51 59 57 0 7 14 20 31 29 25 15 30 23 27 47 -3 34 34
87 40 57 2 -9 -1 -30 -6 -45z m951 44 c4 -8 3 -16 -1 -19 -4 -3 -9 4 -9 15 -2
23 3 25 10 4z m892 -6 c-4 -5 -15 -9 -25 -9 -15 0 -18 -6 -14 -27 3 -15 3 -25
-1 -22 -16 17 -12 50 7 63 22 15 43 12 33 -5z m508 6 c-3 -9 -8 -14 -10 -11
-3 3 -2 9 2 15 9 16 15 13 8 -4z m-2836 -11 c-3 -3 -12 -4 -19 -1 -8 3 -5 6 6
6 11 1 17 -2 13 -5z m2043 -9 c0 -2 -10 -9 -22 -15 -22 -11 -22 -10 -4 4 21
17 26 19 26 11z m-756 -46 c-2 -4 -14 -9 -26 -12 -21 -5 -21 -5 -5 7 9 7 17
22 18 32 0 18 1 18 8 -1 5 -11 7 -23 5 -26z m952 21 c0 -12 -4 -16 -9 -11 -5
5 -6 14 -3 20 10 15 12 14 12 -9z m174 -6 c0 -8 8 -14 19 -14 10 0 24 -7 31
-15 8 -9 9 -15 2 -15 -6 0 -14 5 -17 10 -11 17 -37 11 -42 -10 -4 -15 -9 -18
-18 -10 -9 7 -16 6 -24 -4 -10 -11 -5 -14 29 -13 48 1 67 -13 51 -40 -10 -17
-10 -17 -11 0 0 12 -8 17 -26 17 -15 0 -23 -4 -19 -10 10 -16 -19 -7 -31 10
-6 8 -11 22 -11 30 0 8 -3 26 -7 40 -7 25 -7 25 11 5 10 -11 23 -20 30 -20 22
0 26 15 10 33 -10 10 -14 21 -11 25 10 9 34 -4 34 -19z m-139 -24 c5 -3 10
-17 13 -30 2 -14 9 -24 15 -23 5 2 8 -3 5 -11 -7 -19 -42 -8 -56 18 -15 27
-19 48 -7 40 5 -3 6 -10 3 -16 -4 -6 -2 -8 3 -5 6 4 9 19 7 34 -2 16 -1 21 2
13 4 -8 11 -17 15 -20z m-2621 14 c0 -8 -19 -13 -24 -6 -3 5 1 9 9 9 8 0 15
-2 15 -3z m917 -39 c-9 -7 -13 -16 -9 -21 4 -4 -1 -2 -12 6 -18 14 -17 15 3
24 12 5 21 14 22 20 0 6 3 5 6 -3 3 -8 -2 -20 -10 -26z m1398 25 c-3 -5 -1
-10 4 -10 6 0 11 -4 11 -9 0 -5 -8 -8 -17 -7 -13 1 -19 -8 -21 -28 -2 -17 0
-26 7 -22 5 4 12 2 15 -3 7 -10 -13 -9 -31 2 -15 9 -12 25 11 60 17 25 35 40
21 17z m1160 -32 c5 4 5 1 1 -6 -6 -10 -11 -10 -22 -1 -8 6 -14 17 -14 23 0 6
7 3 14 -6 7 -10 17 -14 21 -10z m-2301 -19 c2 -13 5 -26 6 -29 0 -3 7 6 15 20
8 14 14 19 15 13 0 -19 -37 -76 -43 -66 -6 10 -7 96 -1 90 2 -2 6 -14 8 -28z
m1611 21 c3 -5 2 -10 -4 -10 -5 0 -13 5 -16 10 -3 6 -2 10 4 10 5 0 13 -4 16
-10z m208 -16 c-4 -13 -26 -11 -30 3 -2 6 4 10 14 9 10 -2 17 -7 16 -12z
m-1145 -6 c-6 -18 -25 -21 -31 -5 -3 8 3 13 15 14 10 1 18 -3 16 -9z m546 4
c3 -5 -1 -9 -9 -9 -8 0 -12 4 -9 9 3 4 7 8 9 8 2 0 6 -4 9 -8z m-2451 -13 c-6
-6 -9 -19 -6 -28 3 -10 2 -12 -4 -5 -11 15 -40 10 -62 -10 -20 -18 -31 -20
-31 -6 0 6 7 10 15 10 7 0 18 7 22 15 5 8 18 16 30 18 13 2 26 6 29 10 4 4 10
7 13 7 3 0 0 -5 -6 -11z m2317 -4 c-7 -8 -17 -15 -22 -15 -11 0 14 29 26 30 5
0 3 -7 -4 -15z m596 0 c-8 -8 -19 -15 -25 -15 -6 0 -8 7 -5 15 4 8 15 15 26
15 17 0 18 -2 4 -15z m96 -29 c-3 -5 -9 -1 -13 10 -12 31 -10 39 5 19 8 -11
12 -24 8 -29z m-254 7 c2 -14 -4 -22 -18 -26 -18 -4 -19 -3 -9 9 10 13 8 13
-17 4 l-29 -11 25 26 c27 29 44 28 48 -2z m-171 1 c2 -6 -3 -11 -10 -11 -8 0
-14 6 -14 14 0 15 19 12 24 -3z m987 3 c4 4 4 0 1 -10 -6 -14 -9 -14 -21 -2
-18 17 -18 31 -1 16 8 -6 17 -8 21 -4z m-1329 -7 c3 -5 1 -10 -4 -10 -6 0 -11
5 -11 10 0 6 2 10 4 10 3 0 8 -4 11 -10z m430 0 c3 -5 -1 -10 -10 -10 -9 0
-13 5 -10 10 3 6 8 10 10 10 2 0 7 -4 10 -10z m-395 -10 c0 -5 -2 -10 -4 -10
-3 0 -8 5 -11 10 -3 6 -1 10 4 10 6 0 11 -4 11 -10z m605 -10 c3 -5 -1 -10
-10 -10 -9 0 -13 5 -10 10 3 6 8 10 10 10 2 0 7 -4 10 -10z m669 -6 c3 -8 2
-12 -4 -9 -6 3 -10 10 -10 16 0 14 7 11 14 -7z m-3654 -48 c0 -6 -7 -2 -15 8
-8 11 -15 25 -15 30 0 6 7 2 15 -8 8 -11 15 -25 15 -30z m2025 34 c3 -5 1 -10
-4 -10 -6 0 -11 5 -11 10 0 6 2 10 4 10 3 0 8 -4 11 -10z m-745 -21 c0 -6 -4
-7 -10 -4 -5 3 -10 11 -10 16 0 6 5 7 10 4 6 -3 10 -11 10 -16z m653 -17 c-15
-2 -22 -7 -16 -10 7 -4 0 -15 -16 -27 -19 -14 -22 -15 -13 -2 8 9 10 21 6 28
-4 7 3 19 17 29 21 17 24 17 35 2 11 -15 9 -17 -13 -20z m-1715 5 c9 4 13 2 9
-4 -7 -12 -57 -15 -57 -3 0 13 14 20 23 11 5 -5 16 -7 25 -4z m1555 -7 c3 -11
1 -18 -4 -14 -5 3 -9 12 -9 20 0 20 7 17 13 -6z m1462 -8 c-3 -3 -11 0 -18 7
-9 10 -8 11 6 5 10 -3 15 -9 12 -12z m660 -74 c6 -4 2 -8 -7 -8 -10 0 -18 7
-18 17 0 9 3 12 8 7 4 -5 12 -12 17 -16z m-3872 -52 c13 1 13 1 2 -3 -13 -4
-14 -7 -3 -21 7 -8 -11 2 -39 22 -65 47 -83 70 -22 29 24 -16 52 -28 62 -27z
m1504 22 c-3 -8 -6 -5 -6 6 -1 11 2 17 5 13 3 -3 4 -12 1 -19z m2272 -71 c23
-21 39 -43 36 -47 -3 -5 0 -12 6 -16 8 -4 9 -3 5 4 -4 7 -3 12 3 12 16 0 31
-34 21 -50 -5 -8 -6 -18 -3 -23 3 -5 -4 -4 -16 2 -12 7 -27 9 -34 5 -6 -4 -9
-4 -5 1 13 14 -11 45 -29 38 -12 -5 -15 -2 -10 10 3 9 2 17 -2 17 -5 0 -11 -6
-14 -12 -3 -9 -9 -7 -20 7 -8 11 -13 24 -10 28 3 5 -5 3 -18 -4 -22 -11 -23
-11 -10 4 7 10 9 17 3 17 -5 0 -12 18 -14 39 -3 33 0 42 17 49 16 7 23 4 36
-17 9 -14 35 -43 58 -64z m106 73 c3 -5 1 -10 -4 -10 -6 0 -11 5 -11 10 0 6 2
10 4 10 3 0 8 -4 11 -10z m391 -1 c3 -6 2 -15 -3 -20 -5 -5 -14 0 -21 11 -10
17 -10 20 2 20 8 0 18 -5 22 -11z m-4866 -11 c0 -4 -4 -8 -9 -8 -6 0 -12 4
-15 8 -3 5 1 9 9 9 8 0 15 -4 15 -9z m2400 -3 c0 -1 -6 -7 -13 -13 -10 -8 -13
-6 -13 7 0 11 6 17 13 14 7 -3 13 -6 13 -8z m-1661 -41 c-10 -11 -16 -24 -12
-29 5 -4 2 -5 -5 -1 -10 6 -10 11 -1 22 6 7 9 21 5 29 -3 9 -2 13 4 10 6 -3
10 0 10 7 0 9 3 9 10 -2 6 -10 3 -21 -11 -36z m2727 19 c-7 -7 -26 7 -26 19 0
6 6 6 15 -2 9 -7 13 -15 11 -17z m-3532 -7 c-3 -9 -10 -13 -15 -10 -5 3 -3 11
4 19 15 16 19 13 11 -9z m62 -48 c-2 -10 1 -16 6 -15 6 1 13 -4 15 -10 3 -7
-2 -13 -11 -13 -9 0 -17 -9 -17 -20 -3 -47 -4 -47 -49 -55 -24 -4 -30 -2 -20
4 8 5 17 8 20 6 3 -1 14 9 25 24 17 23 17 24 1 11 -21 -17 -46 -22 -46 -9 0 5
5 9 11 9 5 0 7 5 4 10 -4 6 -11 7 -17 4 -7 -5 -9 3 -5 22 3 16 1 37 -4 46 -8
16 -7 17 15 8 14 -5 28 -5 31 0 3 4 0 10 -6 12 -5 2 -7 11 -3 22 6 16 9 15 30
-11 13 -15 22 -36 20 -45z m2084 62 c0 -5 -5 -10 -11 -10 -5 0 -7 5 -4 10 3 6
8 10 11 10 2 0 4 -4 4 -10z m-1411 -26 c17 -14 31 -31 31 -37 0 -5 -3 -7 -7
-4 -3 4 -12 -1 -20 -11 -13 -15 -13 -15 -4 4 8 17 6 25 -9 39 -10 9 -23 14
-28 11 -5 -3 -9 1 -9 9 0 21 11 19 46 -11z m1259 -2 c2 -13 11 -22 20 -22 15
0 15 -2 2 -10 -10 -6 -16 -6 -18 1 -3 6 -9 6 -17 -1 -16 -13 -25 -1 -20 26 2
10 4 23 4 27 2 18 26 -1 29 -21z m32 24 c0 -3 -4 -8 -10 -11 -5 -3 -10 -1 -10
4 0 6 5 11 10 11 6 0 10 -2 10 -4z m2447 -31 c12 -27 3 -34 -16 -12 -6 8 -7
17 -3 21 4 4 3 7 -3 6 -18 -4 -26 0 -20 10 9 14 29 2 42 -25z m-3769 -25 c7
-11 11 -20 9 -20 -2 0 -12 9 -22 20 -10 11 -14 20 -9 20 5 0 15 -9 22 -20z
m2675 -2 c20 -8 26 -16 22 -27 -5 -12 -4 -13 6 -4 9 9 20 8 49 -7 32 -17 41
-17 74 -6 52 18 112 16 109 -4 -2 -10 12 -20 38 -28 23 -7 42 -12 43 -10 11
26 28 45 47 55 27 14 129 18 129 4 0 -4 11 -6 25 -3 30 5 56 -13 48 -36 -3
-10 -1 -13 4 -7 16 20 53 16 92 -11 23 -15 38 -31 34 -38 -3 -6 -3 -8 2 -4 4
4 14 3 22 -3 10 -9 13 -8 13 5 0 20 56 46 99 46 17 0 49 -14 77 -35 27 -19 70
-48 97 -65 26 -18 45 -36 42 -41 -4 -5 0 -6 8 -3 19 7 69 -60 67 -89 -4 -46 0
-57 23 -58 15 -1 17 -3 6 -6 -15 -4 -15 -9 3 -55 10 -28 17 -53 14 -55 -2 -2
-7 6 -12 19 -4 13 -16 29 -26 37 -11 7 -24 25 -30 40 -9 20 -12 22 -15 9 -5
-19 -30 -31 -46 -21 -7 3 -2 -5 11 -19 19 -21 34 -63 15 -45 -3 4 -11 0 -17
-9 -10 -13 -14 -13 -31 8 -20 23 -20 23 0 8 18 -14 19 -14 7 1 -13 17 -56 34
-47 19 7 -12 -23 -6 -36 7 -6 6 -18 9 -25 6 -10 -4 -8 -10 9 -24 26 -22 17
-24 -30 -7 -39 14 -41 39 -4 48 21 5 22 7 7 19 -8 7 -23 11 -31 7 -9 -3 -15 0
-15 8 0 9 -7 12 -20 9 -16 -4 -20 0 -20 18 0 12 -3 19 -7 16 -3 -4 -12 -2 -20
4 -10 9 -13 8 -13 -2 -1 -8 -8 -2 -16 14 -8 15 -19 27 -25 27 -6 0 -9 6 -6 14
4 10 -5 18 -29 26 -18 6 -34 16 -34 21 0 14 -26 39 -39 39 -19 0 -12 20 7 20
15 1 15 2 2 13 -9 7 -14 21 -12 31 4 18 3 18 -12 3 -14 -13 -21 -14 -36 -5
-15 10 -22 9 -38 -5 -25 -22 -32 -21 -32 4 0 16 -5 20 -20 16 -18 -5 -25 4
-21 27 1 5 -8 6 -21 2 -13 -3 -31 -6 -40 -6 -26 0 -22 -30 9 -62 17 -18 37
-28 56 -28 17 0 36 -8 44 -17 8 -10 12 -12 8 -5 -7 13 4 16 29 6 9 -3 14 -10
11 -14 -3 -5 0 -12 6 -16 8 -4 9 -3 5 4 -4 7 -3 12 3 12 13 0 31 -33 31 -55 0
-10 -5 -14 -12 -9 -10 5 -10 4 -2 -5 10 -11 28 -17 56 -20 4 -1 5 -9 2 -18 -5
-15 -4 -16 5 -3 10 13 13 12 27 -5 9 -12 11 -21 4 -23 -12 -4 58 -42 78 -42
15 0 62 -44 62 -59 0 -5 -9 -7 -20 -4 -11 3 -20 9 -20 14 0 5 -9 9 -21 9 -15
0 -19 5 -15 15 3 8 1 15 -4 15 -6 0 -10 -6 -10 -13 0 -8 -7 -14 -15 -14 -8 0
-12 4 -9 9 3 4 -11 15 -30 25 -26 12 -33 20 -25 29 5 7 6 15 2 17 -13 8 -37
-9 -29 -21 7 -12 -41 -45 -54 -37 -7 4 -6 13 0 26 6 11 15 17 20 14 5 -3 11
-1 15 4 3 6 -6 8 -22 5 -15 -3 -31 -10 -34 -16 -4 -6 -11 -3 -18 8 -9 17 -12
17 -22 4 -9 -13 -10 -12 -5 3 3 11 0 17 -10 17 -8 0 -12 -4 -9 -10 3 -5 1 -10
-4 -10 -21 0 -11 20 15 32 21 10 27 9 35 -3 7 -12 9 -11 9 3 0 9 10 20 21 23
16 5 18 9 9 15 -7 4 -10 12 -6 18 3 5 -1 13 -10 16 -8 3 -12 2 -9 -4 10 -17
-12 -11 -26 7 -10 11 -10 14 -1 9 6 -4 12 -2 12 3 0 6 -9 11 -21 11 -11 0 -18
-4 -15 -9 3 -4 -2 -17 -10 -27 -9 -10 -12 -12 -8 -4 7 12 5 13 -8 2 -12 -10
-18 -9 -28 3 -7 8 -16 12 -21 9 -5 -3 -9 2 -9 10 0 8 5 18 10 21 18 11 10 26
-10 20 -15 -5 -20 -2 -21 12 0 10 -3 13 -6 6 -5 -15 -39 -17 -48 -4 -6 10 12
25 30 26 6 0 11 5 12 10 1 6 -7 9 -17 7 -13 -2 -20 2 -20 12 0 11 -7 15 -22
12 -13 -3 -27 -5 -32 -5 -4 -1 -5 -8 -2 -17 5 -14 4 -15 -9 -4 -9 7 -14 19
-11 27 7 16 -16 17 -32 1 -8 -8 -12 -8 -12 -1 0 6 -12 14 -27 18 -26 7 -26 8
-8 15 20 9 17 11 -22 15 -23 2 -22 -6 5 -37 14 -16 13 -18 -1 -18 -10 0 -17 4
-17 9 0 5 -10 13 -22 17 -38 13 -48 13 -48 1 0 -7 -6 -4 -14 5 -7 10 -16 14
-22 8 -5 -5 -25 0 -49 11 -22 11 -52 18 -67 16 -17 -2 -25 0 -21 7 4 6 -1 5
-10 -3 -10 -8 -21 -11 -25 -7 -10 11 28 36 56 36 13 0 21 4 17 10 -4 7 -20 8
-38 4 -18 -3 -47 -7 -64 -8 -18 0 -33 -4 -33 -8 0 -5 -7 -8 -15 -8 -8 0 -15 5
-15 11 0 8 -4 9 -13 0 -13 -10 -27 -6 -27 9 0 4 26 12 58 18 31 7 66 14 77 16
24 5 60 -1 98 -16z m1147 -28 c0 -5 -2 -10 -4 -10 -3 0 -8 5 -11 10 -3 6 -1
10 4 10 6 0 11 -4 11 -10z m-825 -27 c18 -14 18 -15 2 -9 -10 3 -25 6 -33 6
-8 0 -14 5 -14 10 0 15 22 12 45 -7z m580 -1 c-3 -3 -11 0 -18 7 -9 10 -8 11
6 5 10 -3 15 -9 12 -12z m-1017 -14 c-2 -6 -15 -13 -29 -14 -23 -4 -23 -3 -5
11 24 18 39 19 34 3z m1579 -5 c3 -9 -8 -10 -35 -4 -2 1 0 6 3 12 8 12 27 7
32 -8z m-1485 -11 c4 -16 1 -18 -21 -13 -19 3 -21 6 -8 9 9 2 17 8 17 13 0 15
7 10 12 -9z m1078 14 c0 -3 -4 -8 -10 -11 -5 -3 -10 -1 -10 4 0 6 5 11 10 11
6 0 10 -2 10 -4z m-1024 -25 c-3 -5 1 -14 9 -21 8 -7 15 -18 15 -24 -1 -6 -8
-2 -18 10 -10 11 -23 19 -30 16 -6 -2 -12 1 -12 6 0 6 8 13 18 15 9 3 18 5 20
6 2 0 1 -3 -2 -8z m1144 -5 c0 -3 -15 -12 -32 -20 l-33 -16 24 20 c21 19 41
26 41 16z m305 -26 c3 -5 2 -10 -4 -10 -5 0 -13 5 -16 10 -3 6 -2 10 4 10 5 0
13 -4 16 -10z m-1235 -27 c0 -13 -3 -13 -15 -3 -8 7 -15 16 -15 21 0 5 7 6 15
3 8 -4 15 -13 15 -21z m110 21 c0 -8 -19 -13 -24 -6 -3 5 1 9 9 9 8 0 15 -2
15 -3z m-250 -30 c0 -14 -3 -15 -17 -3 -10 7 -20 15 -22 16 -2 2 5 3 17 3 14
0 22 -6 22 -16z m-162 -3 c13 -1 20 -5 17 -11 -3 -6 1 -7 10 -4 33 13 116 -46
115 -83 0 -4 -5 -1 -10 7 -8 12 -10 13 -10 1 0 -10 -8 -7 -26 10 -14 13 -25
20 -24 14 4 -19 -12 -55 -22 -49 -5 3 -7 12 -4 20 3 8 1 26 -5 41 -7 20 -12
24 -22 14 -9 -9 -9 -16 0 -30 9 -14 8 -18 -3 -18 -8 0 -14 4 -14 9 0 4 -8 8
-17 8 -9 0 -24 7 -34 16 -13 12 -22 13 -38 5 -27 -15 -34 -14 -27 4 7 19 -19
20 -36 1 -11 -11 -18 -11 -46 1 -18 7 -38 11 -44 7 -6 -4 -9 -1 -6 7 2 7 20
14 39 15 19 2 57 7 84 12 28 5 61 8 75 7 14 -2 35 -4 48 -4z m1712 -20 c0 -6
-4 -12 -8 -15 -5 -3 -9 1 -9 9 0 8 4 15 9 15 4 0 8 -4 8 -9z m-34 -78 c-7 -7
-26 7 -26 19 0 6 6 6 15 -2 9 -7 13 -15 11 -17z m-85 -10 c13 -16 12 -17 -3
-4 -10 7 -18 15 -18 17 0 8 8 3 21 -13z m-1169 -16 c41 -17 151 -123 143 -137
-4 -6 -1 -9 6 -8 11 3 116 -114 141 -157 9 -17 6 -16 -23 6 -19 14 -43 29 -54
33 -12 3 -22 16 -23 28 -4 41 -8 57 -16 65 -4 4 -6 1 -4 -7 2 -8 -4 -15 -12
-15 -8 0 -15 7 -15 15 0 8 -9 15 -20 15 -12 0 -21 9 -25 23 -3 13 -9 22 -15
20 -5 -2 -9 -7 -7 -13 2 -5 -6 -1 -17 9 -11 10 -19 23 -18 29 2 11 -3 13 -50
16 -27 2 -27 3 -5 11 20 9 32 23 15 18 -5 -1 -19 4 -32 11 -14 8 -21 9 -17 2
4 -6 1 -11 -7 -11 -12 0 -13 -4 -4 -24 7 -13 14 -23 18 -20 3 2 14 -3 25 -10
10 -8 25 -11 33 -8 8 3 4 -5 -8 -17 -13 -13 -26 -19 -30 -14 -4 4 -18 21 -30
38 -16 22 -32 30 -58 32 -19 1 -47 10 -61 20 -15 9 -33 18 -40 19 -21 4 -7
-21 14 -24 30 -6 84 -63 84 -89 0 -22 -10 -30 -23 -16 -4 3 -2 12 5 20 15 19
2 29 -17 13 -9 -8 -14 -22 -12 -31 7 -26 -15 -29 -34 -5 -16 20 -18 20 -36 4
-15 -14 -22 -15 -31 -6 -7 7 -12 19 -12 27 0 11 -4 10 -14 -4 -10 -13 -11 -25
-5 -37 13 -25 11 -28 -15 -26 -14 1 -22 6 -20 10 3 4 12 4 20 1 14 -5 15 -3 4
16 -6 12 -13 32 -15 43 -5 26 -16 37 -22 21 -6 -17 -63 5 -63 24 0 8 -4 11
-10 8 -5 -3 -10 0 -10 9 0 12 5 12 29 3 25 -9 33 -8 49 6 22 20 48 14 75 -17
10 -12 16 -15 12 -8 -3 6 -1 12 5 12 14 0 9 21 -5 23 -15 1 -38 27 -31 34 3 4
28 14 54 24 55 21 180 18 234 -4z m-989 -12 c9 -4 17 -11 17 -16 0 -13 -44
-11 -58 3 -8 8 -15 8 -24 1 -7 -6 -40 -9 -72 -7 -33 2 -66 -1 -72 -7 -7 -6
-18 -8 -24 -4 -6 4 -22 -1 -37 -10 -21 -14 -27 -15 -34 -4 -10 17 8 28 75 45
51 13 195 12 229 -1z m347 -5 c0 -5 -2 -10 -4 -10 -3 0 -8 5 -11 10 -3 6 -1
10 4 10 6 0 11 -4 11 -10z m170 -20 c0 -5 -3 -9 -7 -8 -15 4 -54 -23 -47 -33
3 -6 -5 -8 -23 -5 -15 2 -34 5 -42 5 -11 1 -10 5 5 16 24 18 39 19 28 2 -5 -7
-2 -6 6 3 26 27 80 41 80 20z m28 -21 c-10 -7 -10 -9 0 -9 6 0 12 -5 12 -12 0
-9 -3 -9 -12 0 -18 18 -19 42 -1 35 12 -5 12 -7 1 -14z m-493 1 c-3 -5 0 -7 8
-4 8 3 17 -2 21 -11 4 -12 10 -14 25 -5 29 15 62 12 98 -10 26 -15 31 -16 26
-4 -3 9 -15 20 -27 25 -15 7 -9 8 23 4 53 -7 90 -25 159 -79 92 -71 109 -87
88 -79 -13 4 -17 3 -12 -5 4 -7 1 -14 -8 -17 -9 -3 -24 -8 -33 -12 -10 -3 -21
-5 -25 -5 -17 4 -6 -9 15 -18 12 -5 15 -9 7 -9 -8 0 -28 6 -45 14 -25 11 -27
14 -9 14 12 1 37 15 55 32 19 17 28 28 22 24 -7 -3 -23 5 -35 18 -13 13 -31
26 -41 30 -11 4 -15 12 -11 19 5 8 2 9 -9 5 -9 -3 -23 1 -32 10 -11 11 -19 13
-27 5 -7 -7 1 -17 26 -34 54 -35 42 -51 -20 -28 -18 7 -37 7 -55 1 -26 -9 -28
-7 -34 20 -6 25 -9 27 -26 19 -10 -6 -18 -14 -16 -18 1 -4 -2 -8 -8 -9 -12 -3
-7 40 6 48 5 3 -10 4 -33 3 -27 -1 -49 4 -60 13 -9 8 -22 12 -29 7 -8 -4 -10
-3 -5 4 6 11 -5 16 -26 13 -4 0 -5 6 -2 14 4 8 17 15 31 15 13 0 21 -4 18 -10z
m2075 1 c0 -6 -4 -12 -8 -15 -5 -3 -9 1 -9 9 0 8 4 15 9 15 4 0 8 -4 8 -9z
m-1620 -39 l0 -26 -16 22 c-8 12 -12 27 -9 32 10 17 25 1 25 -28z m1777 24
c16 3 21 0 17 -11 -5 -13 16 -21 47 -17 4 1 9 -10 12 -23 5 -30 -8 -34 -16 -5
-3 11 -10 20 -16 20 -17 0 -13 -15 9 -35 16 -14 22 -15 35 -5 19 16 46 -9 50
-46 2 -24 2 -24 -18 -7 -19 18 -20 17 -8 -4 8 -16 8 -23 1 -23 -6 0 -15 11
-19 24 -10 24 -34 40 -45 29 -10 -10 -7 -53 3 -53 5 0 11 10 14 23 3 19 5 20
11 5 5 -11 3 -22 -6 -30 -18 -17 -34 -20 -36 -5 0 7 -3 27 -6 45 -3 19 -1 30
4 27 6 -3 7 1 4 9 -3 9 -10 14 -15 11 -4 -3 -6 4 -4 15 5 24 -1 25 -21 5 -20
-19 -41 -19 -41 0 0 10 4 12 12 5 9 -8 14 -6 19 6 10 25 7 32 -10 30 -9 0 -19
6 -22 14 -4 12 -2 13 9 4 8 -6 24 -10 36 -8z m79 -6 c8 0 14 -7 14 -15 0 -8 6
-15 13 -16 9 0 9 -2 0 -5 -14 -6 -53 31 -52 49 0 10 2 10 6 0 2 -7 11 -13 19
-13z m-343 -1 c12 -6 33 -21 45 -33 27 -24 51 -63 33 -52 -6 4 -11 2 -11 -4 0
-6 -5 -8 -10 -5 -6 4 -9 14 -8 23 2 10 -3 16 -11 14 -7 -1 -24 4 -37 13 -29
19 -34 19 -34 1 0 -10 -9 -13 -30 -10 -20 4 -30 1 -30 -8 -1 -9 -5 -7 -14 4
-7 10 -15 15 -18 13 -8 -8 -78 24 -78 35 0 16 22 12 37 -7 8 -10 11 -12 7 -4
-5 11 -1 12 18 8 14 -4 43 0 64 7 49 18 51 18 77 5z m-2487 -19 c8 0 14 5 14
10 0 6 12 10 28 9 15 0 21 -3 12 -6 -8 -3 -19 -12 -23 -19 -7 -12 -47 -20 -47
-10 0 2 -2 10 -3 18 -2 7 -2 10 0 6 3 -5 11 -8 19 -8z m2584 6 c0 -2 -7 -7
-16 -10 -8 -3 -12 -2 -9 4 6 10 25 14 25 6z m-2610 -32 c10 -10 11 -14 2 -14
-7 0 -26 -9 -41 -21 -23 -17 -33 -19 -47 -10 -18 10 -18 10 1 11 26 1 53 22
48 38 -7 18 -20 15 -25 -6 -3 -10 -12 -19 -19 -19 -8 0 -27 -3 -42 -7 -26 -6
-27 -5 -18 13 9 17 8 20 -8 18 -11 0 -17 -6 -14 -14 3 -7 -2 -13 -12 -13 -10
0 -15 6 -13 18 3 14 14 17 60 17 31 0 59 3 64 8 10 9 45 -1 64 -19z m496 -11
c-4 -4 -11 -1 -16 7 -16 25 -11 35 7 17 9 -9 13 -20 9 -24z m1314 22 c5 3 11
1 14 -4 4 -5 -2 -8 -11 -6 -10 2 -22 4 -26 4 -5 1 -5 6 -1 13 6 9 9 9 12 0 2
-7 8 -10 12 -7z m830 5 c0 -5 -8 -10 -17 -10 -15 0 -16 2 -3 10 19 12 20 12
20 0z m-2280 -11 c0 -13 -36 -16 -47 -4 -8 9 -4 12 18 11 16 -1 29 -4 29 -7z
m169 -20 c-7 -13 -7 -19 -1 -15 13 8 26 -10 17 -24 -3 -5 -12 -7 -20 -4 -18 7
-17 64 2 64 11 0 11 -4 2 -21z m601 -41 c0 -17 -31 6 -45 35 l-16 31 31 -29
c16 -16 30 -32 30 -37z m-1349 19 c-8 -8 -11 -8 -11 2 0 8 -6 11 -16 7 -9 -3
-12 -2 -9 5 4 6 13 8 21 5 8 -3 14 0 15 7 0 8 2 8 6 -1 3 -8 0 -19 -6 -25z
m396 27 c-3 -3 -12 -4 -19 -1 -8 3 -5 6 6 6 11 1 17 -2 13 -5z m874 -21 c13
-16 12 -17 -3 -4 -10 7 -18 15 -18 17 0 8 8 3 21 -13z m413 -75 c25 -35 26
-39 11 -54 -15 -15 -15 -14 -9 11 5 19 3 26 -4 21 -6 -4 -19 5 -28 19 -20 30
-34 33 -27 5 3 -11 1 -20 -5 -20 -5 0 -10 10 -10 23 0 12 -1 27 -2 32 -1 6 -2
16 -1 23 2 19 41 -13 75 -60z m341 62 c3 -5 1 -10 -4 -10 -6 0 -11 5 -11 10 0
6 2 10 4 10 3 0 8 -4 11 -10z m121 -19 c48 -51 39 -105 -9 -57 -18 18 -27 22
-36 13 -6 -6 -12 -8 -12 -4 -1 4 -2 10 -3 15 -1 4 -5 13 -10 20 -9 15 10 42
29 42 7 0 26 -13 41 -29z m864 12 c0 -10 -4 -14 -8 -8 -4 6 -11 13 -16 18 -5
4 -2 7 7 7 10 0 17 -8 17 -17z m200 -3 c0 -5 -2 -10 -4 -10 -3 0 -8 5 -11 10
-3 6 -1 10 4 10 6 0 11 -4 11 -10z m-3305 -10 c3 -6 -1 -7 -9 -4 -18 7 -21 14
-7 14 6 0 13 -4 16 -10z m2936 -12 c24 -27 24 -36 1 -15 -10 10 -21 15 -24 12
-2 -3 -5 2 -5 10 0 20 6 19 28 -7z m-373 -24 c-4 -3 -16 -3 -28 1 -17 5 -19 9
-9 21 11 13 14 13 28 0 8 -9 12 -18 9 -22z m-938 16 c0 -5 -4 -10 -10 -10 -5
0 -10 5 -10 10 0 6 5 10 10 10 6 0 10 -4 10 -10z m-75 -20 c-3 -4 1 -10 9 -13
7 -3 16 -15 19 -26 3 -12 1 -19 -4 -15 -5 3 -9 11 -9 17 0 7 -9 18 -20 25 -12
7 -18 17 -15 22 4 6 11 8 16 4 5 -3 7 -9 4 -14z m920 10 c-3 -5 -13 -10 -21
-10 -8 0 -12 5 -9 10 3 6 13 10 21 10 8 0 12 -4 9 -10z m-817 -35 c2 -12 0
-16 -5 -9 -4 6 -17 16 -28 23 -19 11 -19 11 5 9 16 -2 26 -10 28 -23z m652 5
c-6 -11 -13 -20 -15 -20 -3 0 -5 9 -5 20 0 11 7 20 15 20 13 0 14 -4 5 -20z
m735 2 c-3 -3 -11 0 -18 7 -9 10 -8 11 6 5 10 -3 15 -9 12 -12z m-2380 -14
l40 -11 -30 -9 c-51 -15 -59 -16 -96 -3 -52 19 -105 16 -130 -6 -24 -21 -34
-24 -24 -9 9 14 -8 13 -23 -2 -9 -9 -15 -9 -24 1 -10 11 -10 13 0 7 6 -4 12
-3 12 3 0 5 26 19 58 30 61 22 135 21 217 -1z m668 -7 c22 -38 21 -42 -5 -32
-15 5 -23 17 -23 34 -2 35 7 34 28 -2z m646 3 c3 -16 1 -17 -13 -5 -19 16 -21
34 -3 29 6 -3 14 -13 16 -24z m1212 15 c-16 -6 -21 -14 -16 -27 5 -13 4 -14
-6 -5 -15 15 5 43 30 42 10 0 8 -4 -8 -10z m-3175 -14 c4 -8 10 -13 14 -10 5
3 11 1 15 -5 3 -5 -2 -10 -12 -11 -10 0 -28 -2 -41 -3 -13 -2 -25 1 -28 6 -3
5 -2 8 3 7 27 -5 35 1 23 16 -10 12 -9 15 4 15 9 0 19 -7 22 -15z m2512 -24
c2 -7 19 -9 42 -5 25 4 40 2 45 -6 6 -9 4 -11 -5 -5 -8 5 -11 4 -6 -3 4 -6 13
-9 21 -5 9 3 15 -1 15 -10 0 -12 -7 -13 -35 -7 -28 6 -37 4 -45 -9 -7 -11 -9
-12 -10 -2 0 11 -3 11 -17 0 -10 -8 -14 -9 -10 -2 15 24 -14 23 -35 -1 l-23
-25 -20 21 c-16 17 -17 20 -3 15 9 -3 23 2 32 12 18 20 22 41 4 23 -17 -17
-31 -15 -44 6 -11 16 -7 18 39 16 29 -2 53 -8 55 -13z m-128 -5 c0 -7 -7 -19
-15 -26 -13 -10 -18 -11 -28 -1 -9 10 -8 15 7 27 25 18 36 18 36 0z m-2296
-27 c-10 -16 -23 -9 -21 10 1 15 4 17 14 9 7 -5 10 -14 7 -19z m281 -10 c-4
-5 -12 -9 -18 -8 -7 1 -20 1 -31 0 -15 -1 -16 -4 -6 -16 16 -19 5 -32 -13 -17
-10 9 -17 8 -28 -1 -8 -6 4 7 25 30 32 35 42 40 58 32 10 -5 16 -14 13 -20z
m615 27 c0 -2 -7 -9 -15 -16 -13 -11 -14 -10 -9 4 5 14 24 23 24 12z m-249
-16 c13 -7 19 -7 19 0 0 5 9 10 20 10 13 0 20 -6 19 -17 0 -11 -3 -13 -6 -5
-2 6 -9 12 -14 12 -6 0 -7 -4 -4 -10 3 -5 1 -10 -6 -10 -8 0 -7 -6 4 -17 14
-17 13 -18 -30 -21 -26 -1 -52 3 -61 10 -13 11 -14 11 -7 -1 6 -10 4 -12 -4
-7 -7 5 -10 14 -7 22 4 11 2 11 -14 2 -17 -11 -23 -9 -42 12 -13 13 -16 19 -8
13 12 -8 77 0 118 16 2 0 12 -4 23 -9z m2245 -22 c4 -6 3 -8 -4 -4 -5 3 -13 0
-15 -6 -3 -8 -6 -6 -6 5 -1 19 14 23 25 5z m-2439 -14 c8 -8 10 -14 4 -14 -5
0 -13 5 -17 11 -3 6 -14 9 -24 6 -10 -2 -23 -1 -29 3 -7 4 2 7 20 8 17 0 38
-6 46 -14z m837 -29 c17 -22 22 -35 14 -37 -13 -5 -48 26 -48 42 0 5 -7 7 -15
4 -8 -4 -13 -10 -10 -14 7 -11 -12 -23 -25 -15 -10 6 -3 35 8 33 22 -2 33 4
29 16 -10 25 20 7 47 -29z m-544 25 c0 -5 -7 -10 -15 -10 -8 0 -15 5 -15 10 0
6 7 10 15 10 8 0 15 -4 15 -10z m875 -30 c12 0 38 -6 56 -14 51 -20 116 -26
116 -11 0 7 -10 12 -22 10 -12 -1 -22 4 -22 11 0 7 4 11 8 8 4 -2 9 0 11 6 1
5 30 12 63 14 89 7 196 -29 318 -104 26 -16 47 -24 47 -18 0 17 119 3 170 -20
25 -12 57 -23 72 -26 43 -9 122 -86 105 -103 -9 -8 -46 17 -58 39 -10 18 -9
20 5 15 10 -4 15 -3 11 3 -3 6 -17 7 -29 4 -18 -4 -25 -1 -30 18 -6 21 -8 21
-19 6 -10 -12 -17 -14 -31 -6 -13 7 -21 7 -26 -2 -5 -8 -9 -7 -14 5 -3 9 -12
15 -20 12 -8 -3 -16 2 -19 14 -4 13 -10 17 -23 12 -10 -4 -22 0 -29 11 -9 12
-18 14 -35 8 l-22 -8 23 -16 c38 -26 102 -89 96 -94 -3 -3 -19 2 -36 10 -21
11 -28 21 -24 32 5 13 2 15 -14 10 -16 -5 -22 -1 -26 15 -3 12 -10 18 -17 14
-6 -4 -17 -2 -24 4 -11 9 -13 7 -12 -10 0 -12 -7 -27 -17 -33 -15 -9 -21 -7
-33 9 -8 11 -19 21 -24 21 -6 1 -15 2 -21 3 -17 2 -6 34 14 37 9 1 15 -2 11
-7 -3 -5 -11 -6 -17 -3 -7 4 -8 3 -4 -2 5 -5 16 -9 25 -9 9 0 22 -11 29 -25 7
-14 13 -23 14 -20 10 54 9 60 -11 60 -15 0 -20 7 -20 25 0 18 -4 23 -15 19
-10 -4 -15 0 -15 12 -1 16 -3 15 -14 -5 -11 -19 -14 -21 -19 -7 -4 9 -11 16
-18 16 -6 0 -8 -7 -5 -17 6 -16 6 -16 -12 0 -10 9 -23 17 -29 17 -5 0 -15 12
-21 26 -9 19 -9 24 -1 18 8 -4 9 -3 5 4 -4 7 -14 12 -22 12 -8 0 -13 -4 -10
-9 3 -5 -1 -11 -9 -15 -13 -5 -19 5 -16 26 1 11 -30 2 -39 -11 -5 -9 -10 -10
-14 -2 -11 17 -33 13 -33 -5 0 -9 42 -47 93 -85 95 -70 138 -114 128 -130 -3
-5 -10 -7 -15 -3 -5 3 -7 10 -3 15 8 14 -17 41 -33 35 -8 -3 -12 -2 -8 3 7 12
-24 43 -36 36 -5 -4 -9 -2 -9 4 0 6 -6 8 -14 5 -14 -5 -31 12 -31 31 0 6 -8
10 -17 10 -10 0 -23 6 -30 13 -14 14 -32 16 -23 3 3 -5 0 -13 -6 -17 -8 -4 -9
-3 -5 4 4 7 3 12 -3 12 -5 0 -18 3 -28 7 -16 6 -16 5 -4 -10 22 -28 3 -33 -24
-7 -14 13 -28 20 -32 17 -3 -4 0 -7 7 -7 7 0 10 -3 7 -7 -4 -3 -16 2 -26 11
-15 14 -24 15 -40 7 -28 -16 -74 -14 -65 2 5 7 0 6 -11 -3 -16 -13 -18 -13
-13 0 2 8 13 20 24 25 34 18 27 35 -14 32 -27 -1 -36 2 -34 12 1 7 -3 20 -10
29 -7 9 0 6 16 -6 16 -12 39 -22 51 -22z m946 21 c18 -17 18 -18 2 -16 -29 3
-53 16 -47 26 8 14 23 11 45 -10z m506 4 c0 -8 -4 -12 -9 -9 -4 3 -8 9 -8 15
0 5 4 9 8 9 5 0 9 -7 9 -15z m53 0 c7 -8 8 -15 2 -15 -5 0 -15 7 -22 15 -7 8
-8 15 -2 15 5 0 15 -7 22 -15z m-2695 -5 c3 -5 1 -10 -4 -10 -6 0 -11 5 -11
10 0 6 2 10 4 10 3 0 8 -4 11 -10z m2256 0 c10 -6 19 -20 19 -30 0 -11 5 -20
10 -20 6 0 9 -3 9 -7 -3 -19 2 -36 8 -30 3 4 12 2 19 -4 11 -9 8 -18 -12 -45
-15 -19 -31 -34 -38 -33 -7 0 -7 2 0 5 6 2 8 18 6 35 l-4 30 -22 -29 c-11 -16
-25 -31 -31 -33 -5 -2 -9 -10 -9 -16 1 -7 -2 -13 -7 -13 -5 0 -9 6 -9 13 0 9
-2 9 -8 0 -4 -7 -13 -9 -20 -4 -9 5 -5 16 13 41 13 18 26 38 28 44 3 8 8 7 19
-2 26 -21 31 14 12 77 -4 11 -8 10 -19 -5 -12 -17 -11 -20 3 -26 15 -6 14 -7
-3 -8 -11 -2 -23 -2 -27 -1 -5 0 -9 -5 -9 -11 -1 -7 -3 -23 -4 -36 -4 -35 -12
-37 -20 -3 -8 37 -18 39 -33 9 -9 -20 -11 -20 -11 -4 -1 16 -3 17 -18 5 -16
-13 -17 -12 -4 3 7 10 16 16 20 14 3 -2 15 2 26 10 10 8 13 14 6 14 -7 0 -10
4 -6 10 3 5 13 6 22 3 13 -5 15 -2 11 15 -6 22 6 30 17 12 10 -16 23 -12 30
10 7 23 10 24 36 10z m-2133 -45 c-7 -8 -38 23 -38 38 0 6 10 2 22 -10 12 -13
19 -25 16 -28z m1809 20 c0 -8 -4 -12 -9 -9 -5 3 -6 10 -3 15 9 13 12 11 12
-6z m-2204 -10 c-3 -9 -8 -14 -10 -11 -3 3 -2 9 2 15 9 16 15 13 8 -4z m2757
0 c0 -10 10 -15 30 -15 20 0 30 5 30 15 0 8 5 15 12 15 17 0 163 -143 162
-157 -1 -7 2 -10 7 -8 17 11 31 -38 25 -89 -5 -41 -2 -59 14 -91 21 -41 27
-145 8 -145 -5 0 -6 -6 -2 -12 4 -7 -3 -3 -16 8 -25 24 -19 54 6 33 9 -7 14
-8 14 -1 0 6 -10 18 -22 27 -14 9 -19 18 -13 23 6 4 11 19 12 35 2 24 -2 27
-27 27 -23 0 -28 4 -25 20 5 27 -4 25 -14 -2 l-9 -23 -10 25 c-6 16 -6 32 0
43 10 20 2 41 -13 31 -5 -3 -6 -10 -3 -16 4 -7 2 -8 -4 -4 -8 5 -9 13 -2 26 7
14 6 20 -7 25 -15 5 -15 7 -3 15 13 9 13 10 0 10 -13 0 -13 1 0 10 10 6 20 4
32 -6 9 -9 21 -13 26 -10 6 3 8 -2 6 -11 -2 -10 0 -25 5 -33 9 -13 12 -12 24
4 13 18 11 22 -16 47 -16 15 -27 31 -24 36 3 4 -1 14 -9 21 -12 11 -14 9 -14
-8 0 -11 -3 -20 -7 -21 -5 0 -16 -2 -26 -4 -10 -2 -32 8 -50 23 -17 14 -34 27
-36 29 -3 2 1 9 7 15 7 7 12 20 12 30 0 12 5 15 17 11 13 -5 15 -2 10 11 -4
10 -7 23 -7 29 0 7 -6 1 -13 -13 -16 -32 -37 -36 -66 -11 -13 12 -28 18 -32
15 -5 -3 -9 4 -9 15 0 12 5 21 10 21 6 0 10 -7 10 -15z m-27 -66 c4 -16 3 -18
-9 -8 -16 13 -19 29 -5 29 5 0 11 -9 14 -21z m-103 -19 c0 -5 -7 -10 -16 -10
-8 0 -12 5 -9 10 3 6 10 10 16 10 5 0 9 -4 9 -10z m-1380 -28 c0 -12 -22 -32
-34 -32 -6 0 -2 6 9 12 19 12 19 12 -5 19 l-25 7 28 1 c15 1 27 -3 27 -7z m79
-21 c34 -12 54 -15 66 -9 20 12 78 -9 69 -24 -4 -5 -24 -8 -45 -6 -22 2 -39 0
-39 -5 0 -4 -5 -5 -12 -1 -7 4 -8 3 -4 -5 4 -6 11 -9 15 -7 4 3 8 -1 8 -9 0
-19 -16 -19 -40 0 -11 7 -25 11 -31 9 -7 -3 -19 2 -26 11 -15 18 0 21 18 3 9
-9 12 -8 12 4 0 9 -12 18 -30 22 -18 3 -30 12 -30 21 0 19 9 19 69 -4z m-180
-25 c19 -6 36 -17 39 -24 6 -18 -78 -13 -85 5 -3 7 -18 13 -34 13 -19 0 -29 5
-29 14 0 16 45 13 109 -8z m-134 3 c11 -17 0 -20 -21 -4 -17 13 -17 14 -2 15
9 0 20 -5 23 -11z m761 -15 c1 -29 -9 -40 -17 -18 -12 29 -10 46 4 41 6 -2 12
-12 13 -23z m-802 1 c4 -11 -1 -14 -20 -13 -23 2 -24 4 -8 15 22 16 21 16 28
-2z m241 5 c-3 -5 -10 -10 -16 -10 -5 0 -9 5 -9 10 0 6 7 10 16 10 8 0 12 -4
9 -10z m58 -43 c-8 -13 -23 3 -23 26 0 20 0 20 14 2 8 -11 12 -23 9 -28z m227
23 c6 -11 8 -20 6 -20 -3 0 -10 9 -16 20 -6 11 -8 20 -6 20 3 0 10 -9 16 -20z
m810 -47 c13 -13 29 -23 36 -23 16 0 46 -48 38 -61 -4 -6 -13 2 -21 20 -9 17
-20 31 -25 31 -5 0 -4 -9 2 -21 7 -11 9 -23 6 -27 -3 -3 -6 0 -6 6 0 7 -5 12
-11 12 -5 0 -7 -4 -4 -10 3 -6 -5 -10 -19 -10 -34 0 -42 18 -13 29 30 12 44
31 23 31 -9 0 -16 4 -16 10 0 5 -18 14 -39 21 -22 7 -41 19 -44 29 -4 17 -3
17 32 1 20 -9 47 -26 61 -38z m353 39 c-2 -6 8 -19 22 -28 14 -9 23 -20 20
-24 -6 -10 -45 -1 -45 10 0 12 -39 19 -46 8 -3 -5 -12 -7 -19 -4 -7 2 -18 -1
-24 -7 -9 -9 -14 -8 -21 3 -5 8 -10 10 -10 4 0 -22 -26 -22 -40 -1 -7 12 -9
19 -5 15 4 -4 20 -1 34 7 29 17 98 34 121 31 8 -1 14 -7 13 -14z m-1444 -15
c10 -13 -2 -15 -39 -8 -4 1 21 20 26 21 1 0 7 -6 13 -13z m1901 -7 c0 -5 -4
-10 -10 -10 -5 0 -10 5 -10 10 0 6 5 10 10 10 6 0 10 -4 10 -10z m-1690 -10
c0 -5 -2 -10 -4 -10 -3 0 -8 5 -11 10 -3 6 -1 10 4 10 6 0 11 -4 11 -10z
m1323 -27 c-4 -10 -2 -14 5 -9 15 9 26 -12 13 -27 -5 -7 -8 -24 -5 -38 5 -23
5 -23 -10 -6 -8 11 -12 25 -9 33 3 8 1 14 -3 14 -5 0 -10 16 -11 36 -2 29 1
34 12 24 8 -6 11 -19 8 -27z m-553 7 c0 -5 -2 -10 -4 -10 -3 0 -8 5 -11 10 -3
6 -1 10 4 10 6 0 11 -4 11 -10z m50 -52 c0 -15 -15 -8 -28 12 -12 19 -11 20 8
8 11 -7 20 -16 20 -20z m-262 0 c-6 -16 -21 -14 -24 4 -1 11 3 15 12 11 8 -3
13 -10 12 -15z m457 -18 c3 -5 1 -10 -4 -10 -6 0 -11 5 -11 10 0 6 2 10 4 10
3 0 8 -4 11 -10z m880 -27 c3 -9 1 -21 -4 -26 -5 -5 -7 -15 -5 -22 3 -7 0 -16
-7 -21 -7 -4 -10 -3 -5 4 3 5 1 12 -6 14 -10 4 -10 10 -1 30 9 19 9 28 0 37
-9 9 -8 11 5 6 9 -4 19 -14 23 -22z m-838 -36 c-3 -7 -6 -4 -6 6 -1 10 -5 16
-9 13 -4 -2 -9 5 -9 16 -2 21 -2 21 13 -1 9 -12 13 -27 11 -34z m-180 37 c-3
-3 -12 -4 -19 -1 -8 3 -5 6 6 6 11 1 17 -2 13 -5z m684 -17 c-6 -8 -8 -16 -5
-19 3 -4 8 -21 10 -38 4 -24 2 -31 -8 -28 -7 3 -12 12 -10 21 1 9 -6 22 -17
29 -19 12 -19 12 1 30 25 21 46 24 29 5z m-1628 -22 c-6 -18 -34 -16 -41 3 -2
7 6 12 22 12 19 0 24 -4 19 -15z m247 -21 c0 -2 -9 0 -20 6 -11 6 -20 13 -20
16 0 2 9 0 20 -6 11 -6 20 -13 20 -16z m765 5 c11 -17 -1 -21 -15 -4 -8 9 -8
15 -2 15 6 0 14 -5 17 -11z m332 -50 c7 -7 17 -8 29 -2 25 12 76 2 82 -16 3
-8 0 -11 -7 -7 -6 4 -14 0 -17 -8 -6 -16 -24 -12 -24 5 0 6 5 7 10 4 6 -3 10
-1 10 4 0 6 -13 11 -30 11 -16 0 -30 -4 -30 -10 0 -5 -9 -10 -21 -10 -11 0
-17 5 -14 10 3 6 1 10 -4 10 -6 0 -11 5 -11 10 0 13 13 13 27 -1z m-53 -10
c-2 -4 1 -9 8 -11 8 -3 8 -7 2 -11 -6 -3 -18 2 -27 13 -14 17 -14 19 3 17 10
-1 17 -4 14 -8z m546 6 c0 -2 -6 -8 -13 -14 -10 -8 -14 -7 -14 2 0 8 6 14 14
14 7 0 13 -1 13 -2z m-619 -52 c12 -16 12 -17 -2 -6 -9 7 -20 9 -24 5 -5 -4
-5 -1 -1 6 9 16 11 15 27 -5z m901 -11 c-7 -5 -10 -17 -7 -28 6 -17 6 -18 -5
-1 -12 19 -6 37 13 37 9 0 8 -3 -1 -8z m-273 -38 c17 -14 31 -31 31 -37 0 -6
-7 -2 -15 10 -10 14 -22 20 -33 17 -13 -5 -14 -4 -3 4 10 7 7 12 -15 20 -16 6
-21 11 -12 11 9 1 30 -11 47 -25z m138 -29 c0 -8 -4 -12 -9 -9 -4 3 -8 9 -8
15 0 5 4 9 8 9 5 0 9 -7 9 -15z m158 4 c11 -17 -1 -21 -15 -4 -8 9 -8 15 -2
15 6 0 14 -5 17 -11z m-297 -18 c3 -8 -1 -12 -9 -9 -7 2 -15 10 -17 17 -3 8 1
12 9 9 7 -2 15 -10 17 -17z m37 -61 c3 -6 -1 -7 -9 -4 -18 7 -21 14 -7 14 6 0
13 -4 16 -10z m419 -63 c10 -15 16 -36 13 -47 -3 -10 0 -21 6 -23 11 -3 -14
-37 -27 -37 -8 0 -1 58 7 67 11 10 8 25 -3 18 -6 -4 -7 1 -3 11 4 12 3 15 -5
10 -8 -4 -12 0 -12 11 0 15 -2 16 -10 3 -8 -11 -9 -9 -6 10 6 36 7 36 14 20 4
-8 15 -27 26 -43z m-62 -22 c-5 -28 -22 -24 -22 6 0 10 6 19 14 19 9 0 12 -8
8 -25z m-159 -45 c3 -11 1 -23 -4 -26 -5 -3 -9 -2 -10 3 0 4 -2 16 -4 26 -5
24 11 22 18 -3z m86 -45 c7 0 17 -10 22 -22 5 -14 5 -23 -1 -23 -6 0 -10 9
-10 20 0 14 -6 20 -16 18 -10 -2 -19 4 -21 12 -3 9 -1 11 4 5 4 -5 14 -10 22
-10z m152 -13 c-6 -2 -8 -9 -5 -14 4 -7 2 -8 -4 -4 -9 5 -9 13 0 29 8 17 13
18 16 7 3 -7 0 -16 -7 -18z m-116 -69 c-3 -16 -3 -23 1 -16 4 10 8 10 19 0 7
-7 11 -15 9 -19 -3 -4 4 -15 14 -25 11 -10 22 -33 25 -51 6 -28 5 -31 -7 -20
-7 8 -16 24 -20 36 -4 12 -12 21 -19 19 -6 -1 -13 8 -15 21 -4 27 -11 28 -28
5 -7 -10 -16 -15 -20 -11 -4 4 -2 13 3 20 14 19 24 50 14 44 -5 -3 -14 0 -19
7 -9 10 -4 13 19 15 27 2 29 0 24 -25z m123 15 c17 -17 15 -27 -6 -21 -10 2
-19 11 -19 19 0 17 9 18 25 2z m-10 -46 c2 -7 -2 -11 -10 -10 -7 2 -12 -3 -10
-9 1 -7 -2 -13 -8 -13 -11 0 -13 11 -4 35 7 17 25 16 32 -3z m45 -68 c13 -24
13 -31 2 -31 -7 0 -11 7 -8 16 2 9 -5 4 -17 -12 -22 -28 -40 -28 -40 -1 0 9 5
12 12 8 6 -4 8 -3 5 3 -3 5 -1 29 5 53 11 40 12 42 18 20 4 -14 14 -39 23 -56z
m-157 11 c-3 -8 0 -15 6 -15 6 0 9 -2 6 -5 -3 -3 -12 -3 -21 1 -16 6 -12 34 5
34 6 0 8 -7 4 -15z m149 -74 c3 -5 2 -12 -3 -15 -5 -3 -9 1 -9 9 0 17 3 19 12
6z m-91 -67 c3 -8 2 -12 -4 -9 -6 3 -10 10 -10 16 0 14 7 11 14 -7z m133 -59
c9 -24 -1 -27 -15 -5 -8 13 -8 20 -2 20 6 0 13 -7 17 -15z m-147 -41 c0 -8 -5
-12 -10 -9 -6 4 -8 11 -5 16 9 14 15 11 15 -7z m-10 -44 c0 -5 -5 -10 -11 -10
-5 0 -7 5 -4 10 3 6 8 10 11 10 2 0 4 -4 4 -10z m149 -129 c7 -5 9 -11 5 -14
-5 -3 -15 1 -22 9 -14 16 -5 18 17 5z m-9 -41 c0 -5 -2 -10 -4 -10 -3 0 -8 5
-11 10 -3 6 -1 10 4 10 6 0 11 -4 11 -10z m-240 -949 c-15 -28 -30 -35 -43
-21 -9 10 -9 11 0 6 7 -3 14 2 18 14 3 11 13 20 21 20 11 0 12 -4 4 -19z m-72
-76 c-3 -3 -9 2 -12 12 -6 14 -5 15 5 6 7 -7 10 -15 7 -18z m-38 -50 c-28 -30
-66 -38 -67 -14 -2 23 24 33 35 13 7 -12 11 -10 22 10 7 14 17 23 22 20 5 -4
0 -16 -12 -29z m-1300 -15 c5 0 7 8 3 18 -3 9 -3 14 2 10 4 -4 9 -19 11 -34
l2 -26 -24 23 c-13 12 -24 27 -24 33 0 6 5 3 11 -6 5 -10 14 -18 19 -18z m54
4 c5 -14 4 -15 -9 -4 -17 14 -19 20 -6 20 5 0 12 -7 15 -16z m-4070 -70 c3 -8
2 -12 -4 -9 -6 3 -10 10 -10 16 0 14 7 11 14 -7z m86 -14 c0 -5 -2 -10 -4 -10
-3 0 -8 5 -11 10 -3 6 -1 10 4 10 6 0 11 -4 11 -10z m-415 -19 c20 -11 35 -32
43 -57 6 -21 10 -39 8 -41 -1 -1 -14 3 -29 10 -30 13 -37 29 -9 21 15 -5 15
-4 -2 10 -10 8 -22 13 -27 11 -7 -5 -19 22 -25 53 -3 16 6 15 41 -7z m4225
-41 c0 -5 -2 -10 -4 -10 -3 0 -8 5 -11 10 -3 6 -1 10 4 10 6 0 11 -4 11 -10z
m60 -37 c0 -30 -3 -35 -11 -23 -8 12 -9 9 -5 -12 4 -16 1 -30 -6 -35 -31 -19
-34 -7 -9 48 14 32 27 59 28 59 2 0 3 -17 3 -37z m-100 -8 c0 -5 -5 -3 -10 5
-7 11 -10 11 -10 2 0 -7 -4 -10 -10 -7 -6 4 -5 11 3 19 12 14 27 4 27 -19z
m825 15 c3 -5 -1 -10 -9 -10 -8 0 -18 5 -21 10 -3 6 1 10 9 10 8 0 18 -4 21
-10z m-4935 -80 c-1 -12 -4 -11 -15 4 -8 10 -12 23 -8 29 7 11 23 -12 23 -33z
m4044 32 c2 -4 0 -14 -6 -22 -8 -12 -9 -12 -5 2 3 9 1 19 -6 22 -9 3 -9 5 0 5
6 1 14 -3 17 -7z m-34 -8 c0 -8 -19 -13 -24 -6 -3 5 1 9 9 9 8 0 15 -2 15 -3z
m-1958 -34 c-32 -30 -52 -38 -52 -22 0 11 30 38 50 45 33 12 34 5 2 -23z m197
17 c-2 -1 -13 -9 -24 -17 -19 -14 -19 -14 -6 3 7 9 18 17 24 17 6 0 8 -1 6 -3z
m-94 -17 c-3 -5 -1 -10 5 -10 6 0 8 -5 4 -12 -6 -9 -9 -9 -12 0 -2 7 -8 10
-13 6 -10 -6 -12 9 -2 19 10 11 25 8 18 -3z m145 6 c0 -2 -8 -10 -17 -17 -16
-13 -17 -12 -4 4 13 16 21 21 21 13z m-103 -28 c-3 -8 -6 -5 -6 6 -1 11 2 17
5 13 3 -3 4 -12 1 -19z m52 1 c-24 -15 -45 -11 -24 5 11 8 24 12 28 9 5 -3 3
-9 -4 -14z m-2212 -52 c13 -21 21 -43 17 -49 -4 -6 -3 -8 4 -4 6 4 23 -17 40
-52 18 -36 25 -59 18 -59 -7 0 -13 10 -14 21 0 11 -6 22 -12 24 -5 2 -10 13
-10 25 0 11 -3 17 -7 14 -8 -9 -44 44 -37 55 3 4 0 8 -5 8 -6 0 -11 7 -11 16
0 8 -7 22 -15 31 -8 8 -12 20 -8 26 4 7 8 6 11 -3 3 -8 16 -32 29 -53z m536
42 c-8 -8 -13 -7 -18 2 -5 8 -4 10 3 5 7 -4 12 -2 12 5 0 7 3 9 7 6 4 -4 2
-12 -4 -18z m2911 -25 c3 -8 2 -12 -4 -9 -6 3 -10 10 -10 16 0 14 7 11 14 -7z
m-879 -24 c3 -6 3 -10 -2 -10 -11 1 -43 26 -43 34 0 9 37 -11 45 -24z m-2095
10 c18 -12 2 -12 -25 0 -13 6 -15 9 -5 9 8 0 22 -4 30 -9z m3460 -6 c-23 -27
-95 -64 -185 -94 -49 -17 -89 -29 -91 -27 -1 1 8 25 19 54 l21 51 42 -4 c25
-2 66 4 101 16 32 10 69 19 82 19 20 1 22 -1 11 -15z m-1990 -24 c-9 -18 -40
-40 -54 -40 -14 0 -4 23 19 46 28 28 51 24 35 -6z m2097 -6 c17 -26 16 -27
-10 -50 -33 -28 -95 -47 -225 -69 -143 -24 -167 -16 -57 19 110 35 139 49 189
92 48 41 79 43 103 8z m88 16 c-4 -6 -10 -8 -15 -5 -4 3 -11 -1 -13 -7 -3 -8
-6 -6 -6 5 -1 11 6 17 20 17 11 0 17 -5 14 -10z m-1956 -5 c-6 -5 -143 -35
-162 -35 -7 0 -8 3 -1 10 6 6 37 14 70 19 73 11 99 12 93 6z m432 -12 c13 -16
12 -17 -3 -4 -10 7 -18 15 -18 17 0 8 8 3 21 -13z m799 -3 c0 -5 -2 -10 -4
-10 -3 0 -8 5 -11 10 -3 6 -1 10 4 10 6 0 11 -4 11 -10z m217 -22 c-3 -7 -5
-2 -5 12 0 14 2 19 5 13 2 -7 2 -19 0 -25z m-380 0 c15 -7 32 -18 36 -25 5 -8
12 -11 17 -8 5 3 11 1 15 -5 4 -6 10 -8 14 -6 4 3 8 -4 8 -15 2 -23 -10 -25
-27 -4 -7 8 -16 12 -21 9 -5 -3 -8 -1 -7 5 2 6 -15 22 -37 35 -43 27 -42 33 2
14z m94 -5 c12 -16 12 -17 -1 -7 -8 6 -22 14 -30 17 -13 5 -12 6 1 6 9 1 23
-7 30 -16z m112 -14 c-8 -8 -13 -7 -18 2 -6 8 -4 10 5 4 10 -6 12 -4 6 11 -6
15 -5 17 5 7 9 -10 10 -16 2 -24z m101 15 c3 -8 2 -12 -4 -9 -6 3 -10 10 -10
16 0 14 7 11 14 -7z m-3057 0 c-3 -3 -12 -4 -19 -1 -8 3 -5 6 6 6 11 1 17 -2
13 -5z m3028 -4 c3 -5 1 -10 -5 -10 -6 0 -9 -4 -5 -9 3 -6 15 -8 26 -6 21 4
23 -15 2 -22 -14 -5 -54 37 -47 49 7 11 21 10 29 -2z m-1390 -17 c-40 -21
-180 -64 -167 -51 12 12 159 66 182 67 8 0 2 -7 -15 -16z m893 -35 c5 -29 9
-54 8 -55 -1 -1 -17 11 -34 27 -20 18 -32 38 -31 52 1 17 3 18 6 6 2 -10 9
-18 14 -18 6 0 7 -5 3 -12 -4 -7 -3 -8 4 -4 7 4 12 16 12 27 0 11 -4 17 -10
14 -5 -3 -10 -1 -10 4 0 6 6 11 14 11 8 0 17 -20 24 -52z m122 30 c0 -6 10
-23 23 -36 l22 -25 -25 14 c-14 7 -29 13 -34 14 -16 0 -17 45 -1 45 8 0 15 -5
15 -12z m95 -17 c57 -33 59 -37 15 -33 -22 2 -40 9 -40 15 0 6 -3 7 -7 4 -3
-4 -12 1 -20 11 -8 9 -12 11 -8 5 4 -9 1 -11 -9 -7 -9 3 -16 12 -16 19 0 19
37 12 85 -14z m-2640 -19 c-3 -3 0 -11 6 -19 7 -7 7 -13 2 -13 -5 0 -15 11
-21 25 -16 34 -15 40 3 25 9 -7 13 -15 10 -18z m2245 14 c0 -21 -23 -25 -37
-7 -11 14 -12 14 -13 -1 0 -21 -39 -25 -71 -8 -36 20 -19 30 51 30 54 0 70 -3
70 -14z m54 -1 c-4 -8 -12 -15 -20 -15 -8 0 -14 7 -14 15 0 8 9 15 20 15 13 0
18 -5 14 -15z m211 -17 c11 -18 18 -37 17 -41 -1 -5 2 -6 8 -2 5 3 25 -4 43
-17 17 -13 33 -22 35 -20 6 6 30 0 48 -12 17 -13 15 -14 -21 -6 -22 5 -56 10
-76 10 -50 0 -77 25 -82 78 -5 50 2 53 28 10z m325 11 c0 -6 -4 -7 -10 -4 -5
3 -10 11 -10 16 0 6 5 7 10 4 6 -3 10 -11 10 -16z m-2768 -6 c10 -9 18 -22 18
-30 0 -12 -2 -12 -12 -1 -42 44 -46 68 -6 31z m2712 -14 c-6 -11 -24 -2 -24
11 0 5 7 7 15 4 8 -4 12 -10 9 -15z m-719 -5 c13 -8 45 -19 72 -24 47 -7 47
-8 10 -9 -40 -1 -100 19 -111 38 -10 15 1 14 29 -5z m-2286 -30 c11 -11 -7
-10 -34 3 l-30 14 30 -6 c16 -4 32 -9 34 -11z m46 -24 c-3 -5 0 -12 6 -16 8
-4 9 -3 5 4 -9 16 7 15 22 0 19 -19 14 -32 -5 -17 -16 13 -17 12 -5 -3 8 -10
19 -16 25 -15 12 2 69 -104 61 -112 -2 -3 6 -15 18 -28 12 -13 16 -23 10 -23
-14 0 -53 52 -80 106 -12 23 -36 56 -54 74 -38 38 -47 66 -17 49 11 -5 17 -14
14 -19z m2574 -7 c74 -49 201 -152 201 -164 0 -20 -63 -7 -213 46 -156 54
-234 89 -272 120 -19 15 -18 16 25 11 25 -3 70 0 100 8 84 21 98 19 159 -21z
m416 18 c7 -13 -27 -31 -57 -31 -13 0 -33 7 -44 16 -10 8 -14 13 -9 11 6 -3
26 -2 45 3 49 11 58 11 65 1z m-3235 -75 c0 -6 -5 -4 -10 4 -5 8 -10 11 -10 6
0 -6 -13 3 -30 19 -16 15 -27 32 -24 37 7 11 74 -50 74 -66z m380 23 c6 -11
18 -39 26 -62 12 -37 12 -40 -1 -23 -8 11 -15 28 -15 39 0 10 -4 16 -9 13 -8
-6 -51 52 -51 68 0 13 40 -15 50 -35z m2223 -34 c31 -22 57 -43 57 -47 0 -32
-107 35 -149 93 l-25 33 30 -19 c17 -11 56 -38 87 -60z m-2385 12 c17 -18 20
-27 11 -32 -7 -5 -10 -4 -6 3 9 13 -51 64 -65 56 -7 -4 -8 -2 -4 4 9 15 32 3
64 -31z m226 8 c-4 -8 -7 -15 -9 -15 -2 0 -5 7 -9 15 -3 9 0 15 9 15 9 0 12
-6 9 -15z m2854 -22 c-13 -14 -36 -31 -53 -39 l-30 -15 28 21 c25 20 28 40 6
40 -6 0 -8 -4 -5 -9 3 -5 -1 -11 -8 -14 -8 -3 -17 -1 -19 6 -4 13 82 48 96 40
5 -3 -2 -16 -15 -30z m-2823 -3 c-6 -33 -16 -44 -26 -29 -5 8 -9 19 -9 24 0 6
5 3 10 -5 8 -13 10 -12 11 5 1 11 1 24 0 28 -1 5 3 6 8 3 5 -4 8 -15 6 -26z
m2653 -16 c12 -10 22 -21 22 -25 0 -3 -19 -11 -41 -18 -39 -12 -43 -11 -70 15
-15 15 -26 32 -22 37 3 6 1 7 -4 4 -6 -4 -16 -1 -21 6 -18 22 110 4 136 -19z
m-3023 2 c7 3 16 1 20 -5 4 -7 0 -8 -11 -4 -12 4 -15 3 -10 -5 12 -20 0 -13
-20 11 -10 12 -12 17 -5 10 7 -6 19 -9 26 -7z m475 -11 c-11 -13 -10 -18 6
-31 18 -14 17 -14 -6 -3 -35 17 -36 18 -14 34 25 19 30 19 14 0z m-356 -64
c-4 -4 -84 47 -84 54 0 2 20 -8 44 -23 24 -15 42 -29 40 -31z m46 34 c14 -19
14 -19 -2 -6 -10 7 -18 18 -18 24 0 6 1 8 3 6 1 -2 9 -13 17 -24z m119 -20 c0
-5 -4 -3 -9 5 -5 8 -9 22 -9 30 0 16 17 -16 18 -35z m2892 11 c-13 -13 -32
-27 -44 -30 -20 -5 -20 -4 3 14 14 11 32 26 39 34 8 9 17 13 20 11 2 -3 -6
-16 -18 -29z m-542 8 c2 -2 -7 -4 -22 -4 -14 0 -29 5 -32 10 -6 10 42 4 54 -6z
m-2659 -29 c19 -19 32 -35 29 -35 -3 0 -20 16 -39 35 -19 19 -32 35 -29 35 3
0 20 -16 39 -35z m3110 10 c0 -19 -20 -27 -57 -23 l-28 3 30 17 c38 22 55 22
55 3z m-2639 -9 c5 3 8 0 7 -7 -2 -7 4 -13 12 -14 8 0 14 -6 13 -13 -2 -7 2
-12 7 -12 6 0 10 -5 10 -12 0 -7 -16 3 -35 22 -19 19 -35 39 -34 44 0 6 3 5 6
-2 2 -6 9 -10 14 -6z m2182 7 c-7 -2 -19 -2 -25 0 -7 3 -2 5 12 5 14 0 19 -2
13 -5z m67 -13 c20 -6 21 -8 5 -8 -11 0 -29 3 -40 8 -25 11 1 11 35 0z m-2254
-67 c32 -31 49 -48 37 -39 -27 22 -50 12 -32 -12 7 -10 -4 -1 -25 19 -22 21
-40 48 -41 63 -2 14 -2 26 -1 26 1 0 29 -25 62 -57z m-357 1 c14 -12 -19 -1
-35 12 -18 14 -18 14 6 3 14 -6 27 -13 29 -15z m87 -40 c18 -14 18 -14 -6 -3
-31 14 -36 19 -24 19 6 0 19 -7 30 -16z m90 -66 c4 -7 -9 1 -29 16 -20 16 -37
30 -37 33 0 7 58 -36 66 -49z m229 22 c10 -11 16 -20 13 -20 -3 0 -13 9 -23
20 -10 11 -16 20 -13 20 3 0 13 -9 23 -20z m-52 -126 c-3 -9 0 -14 7 -12 23 5
31 -56 26 -207 -3 -82 -6 -151 -6 -153 0 -6 -25 24 -37 45 -7 13 -8 24 -2 30
6 6 11 20 12 31 0 12 7 24 13 26 7 3 10 14 7 26 -4 14 -9 18 -16 11 -6 -6 -14
-6 -21 2 -9 8 -8 15 6 29 10 10 18 24 18 31 0 8 -4 7 -11 -3 -8 -12 -9 -10 -4
7 13 46 15 73 6 73 -5 0 -8 20 -8 45 0 24 4 42 8 39 5 -2 6 -11 2 -20z m777
-138 c-6 -56 -18 -115 -27 -133 -17 -37 -101 -118 -111 -108 -4 4 -1 10 6 12
6 3 10 9 7 14 -3 4 3 26 15 48 11 22 20 45 20 52 0 6 16 46 35 88 19 43 40
102 47 132 11 45 14 49 16 25 2 -16 -2 -75 -8 -130z m1077 -408 c-2 -13 -4 -3
-4 22 0 25 2 35 4 23 2 -13 2 -33 0 -45z m540 -254 c-3 -3 -12 -4 -19 -1 -8 3
-5 6 6 6 11 1 17 -2 13 -5z m3 -24 c0 -5 -7 -7 -15 -4 -8 4 -15 8 -15 10 0 2
7 4 15 4 8 0 15 -4 15 -10z m-3 -26 c-3 -3 -12 -4 -19 -1 -8 3 -5 6 6 6 11 1
17 -2 13 -5z m0 -20 c-3 -3 -12 -4 -19 -1 -8 3 -5 6 6 6 11 1 17 -2 13 -5z"/>
<path d="M5125 8720 c-3 -5 -1 -10 4 -10 6 0 11 5 11 10 0 6 -2 10 -4 10 -3 0
-8 -4 -11 -10z"/>
<path d="M5016 7831 c-4 -7 -5 -15 -2 -18 9 -9 19 4 14 18 -4 11 -6 11 -12 0z"/>
<path d="M5500 7745 c0 -10 29 -24 34 -17 3 6 -3 12 -14 15 -11 3 -20 4 -20 2z"/>
<path d="M4708 7673 c6 -2 18 -2 25 0 6 3 1 5 -13 5 -14 0 -19 -2 -12 -5z"/>
<path d="M5777 7599 c-4 -16 -3 -18 9 -8 7 6 11 15 8 20 -8 13 -11 11 -17 -12z"/>
<path d="M4586 7596 c3 -9 11 -16 16 -16 13 0 5 23 -10 28 -7 2 -10 -2 -6 -12z"/>
<path d="M4510 7486 c7 -7 13 -7 20 0 6 6 3 10 -10 10 -13 0 -16 -4 -10 -10z"/>
<path d="M5762 7484 c10 -10 20 -16 22 -13 3 3 -5 11 -17 18 -21 13 -21 12 -5
-5z"/>
<path d="M5703 7438 c2 -7 10 -13 17 -13 7 0 15 6 18 13 2 7 -5 12 -18 12 -13
0 -20 -5 -17 -12z"/>
<path d="M4380 7430 c-13 -9 -13 -10 0 -9 8 1 26 5 40 9 l25 8 -25 1 c-14 0
-32 -4 -40 -9z"/>
<path d="M5770 7398 c0 -7 5 -20 10 -28 8 -13 11 -13 22 -1 10 10 10 12 1 7
-9 -5 -13 0 -13 13 0 12 -4 21 -10 21 -5 0 -10 -6 -10 -12z"/>
<path d="M5990 7390 c0 -17 3 -19 19 -11 10 6 22 7 27 3 5 -4 2 1 -5 11 -18
23 -41 22 -41 -3z"/>
<path d="M6086 7384 c-17 -12 -17 -14 -4 -14 9 0 20 5 23 11 11 17 2 18 -19 3z"/>
<path d="M5540 7371 c-24 -7 -24 -7 -4 -13 12 -3 32 1 45 8 21 12 22 13 4 13
-11 -1 -31 -4 -45 -8z"/>
<path d="M5815 7359 c-9 -13 -6 -16 28 -24 17 -5 27 -3 27 4 0 6 -7 11 -16 11
-8 0 -12 5 -9 10 3 6 -1 10 -9 10 -8 0 -18 -5 -21 -11z"/>
<path d="M4405 7300 c4 -6 11 -8 16 -5 14 9 11 15 -7 15 -8 0 -12 -5 -9 -10z"/>
<path d="M3725 7290 c-9 -14 1 -27 25 -33 13 -3 20 0 20 9 0 18 -37 38 -45 24z"/>
<path d="M4425 7250 c3 -5 13 -10 21 -10 8 0 12 5 9 10 -3 6 -13 10 -21 10 -8
0 -12 -4 -9 -10z"/>
<path d="M4540 7245 c-7 -8 -9 -19 -5 -23 4 -4 10 -2 12 4 2 7 13 9 25 6 15
-3 19 -1 16 9 -7 20 -33 22 -48 4z"/>
<path d="M4315 7229 c-4 -6 -5 -12 -2 -15 2 -3 7 2 10 11 7 17 1 20 -8 4z"/>
<path d="M4784 7231 c4 -5 0 -11 -6 -14 -7 -3 -3 -4 9 -4 17 1 19 4 11 14 -12
15 -22 18 -14 4z"/>
<path d="M5415 7231 c-10 -18 17 -23 33 -7 15 15 15 16 -5 16 -12 0 -24 -4
-28 -9z"/>
<path d="M4461 7206 c7 -15 15 -23 17 -16 3 7 -3 19 -13 28 -15 16 -16 15 -4
-12z"/>
<path d="M4425 7210 c3 -5 8 -10 11 -10 2 0 4 5 4 10 0 6 -5 10 -11 10 -5 0
-7 -4 -4 -10z"/>
<path d="M4503 7213 c-15 -5 -17 -33 -3 -33 6 0 10 5 10 10 0 7 6 7 19 0 12
-6 22 -6 26 -1 7 12 -12 24 -24 17 -5 -4 -11 -2 -13 2 -1 5 -9 7 -15 5z"/>
<path d="M6204 7212 c3 -6 -4 -18 -16 -27 -15 -12 -19 -19 -10 -22 6 -3 12 -9
12 -14 0 -6 -4 -8 -9 -4 -5 3 -12 1 -16 -5 -3 -6 1 -13 9 -16 19 -7 89 34 80
47 -7 13 19 7 28 -6 5 -6 8 -6 8 2 0 6 -14 21 -30 33 -17 12 -30 18 -29 13 3
-18 -2 -33 -11 -33 -5 0 -7 6 -4 14 3 8 0 17 -7 22 -7 4 -10 3 -5 -4z"/>
<path d="M5160 7184 l-25 -14 29 2 c16 2 31 9 34 16 5 16 -7 15 -38 -4z"/>
<path d="M5581 7177 c-13 -21 -12 -21 5 -5 10 10 16 20 13 22 -3 3 -11 -5 -18
-17z"/>
<path d="M5620 7196 c0 -2 7 -7 16 -10 8 -3 12 -2 9 4 -6 10 -25 14 -25 6z"/>
<path d="M4575 7180 c-3 -5 -1 -10 4 -10 6 0 11 5 11 10 0 6 -2 10 -4 10 -3 0
-8 -4 -11 -10z"/>
<path d="M4630 7178 c0 -9 8 -22 18 -29 16 -13 16 -13 2 5 -8 11 -13 21 -12
23 2 3 1 7 -2 11 -3 3 -6 -2 -6 -10z"/>
<path d="M5230 7176 c7 -7 13 -7 20 0 6 6 3 10 -10 10 -13 0 -16 -4 -10 -10z"/>
<path d="M5275 7181 c-3 -5 -1 -12 5 -16 5 -3 10 -1 10 6 0 9 3 9 14 0 9 -7
17 -8 20 -3 3 6 -1 13 -10 16 -22 8 -32 8 -39 -3z"/>
<path d="M3963 7165 c0 -8 4 -12 9 -9 5 3 6 10 3 15 -9 13 -12 11 -12 -6z"/>
<path d="M4765 7160 c-3 -6 -12 -7 -18 -3 -7 3 -3 -3 7 -15 23 -27 27 -27 20
-4 -5 15 -4 15 10 -2 8 -10 17 -23 18 -28 2 -4 13 -10 24 -12 20 -4 21 -2 11
24 -6 16 -18 31 -26 34 -9 3 -21 8 -28 12 -6 3 -14 0 -18 -6z m55 -30 c0 -5
-2 -10 -4 -10 -3 0 -8 5 -11 10 -3 6 -1 10 4 10 6 0 11 -4 11 -10z"/>
<path d="M3486 7148 c3 -5 10 -6 15 -3 13 9 11 12 -6 12 -8 0 -12 -4 -9 -9z"/>
<path d="M3810 7153 c0 -5 4 -15 10 -23 11 -18 25 -7 17 15 -6 15 -27 21 -27
8z"/>
<path d="M4603 7144 c3 -4 -3 -14 -15 -24 -22 -17 -22 -17 8 -15 46 3 50 5 34
15 -11 7 -11 10 -2 10 7 0 10 5 7 10 -3 6 -13 10 -22 10 -9 0 -14 -3 -10 -6z"/>
<path d="M4126 7125 c-9 -26 -7 -32 5 -12 6 10 9 21 6 23 -2 3 -7 -2 -11 -11z"/>
<path d="M6733 7099 c-1 -10 2 -19 8 -19 11 0 12 27 1 34 -4 2 -9 -4 -9 -15z"/>
<path d="M4486 7102 c-3 -5 1 -9 9 -9 8 0 12 4 9 9 -3 4 -7 8 -9 8 -2 0 -6 -4
-9 -8z"/>
<path d="M5773 7095 c0 -8 6 -16 14 -19 11 -4 11 -1 3 14 -13 24 -17 25 -17 5z"/>
<path d="M4865 7081 c-2 -5 3 -15 12 -22 14 -12 16 -12 8 0 -6 11 -4 13 11 7
10 -5 24 -9 30 -9 6 0 9 -9 6 -19 -3 -12 0 -18 9 -16 9 2 14 -6 14 -19 0 -12
4 -25 8 -29 4 -4 7 4 7 19 0 14 -4 29 -10 32 -5 3 -10 15 -10 25 0 10 -9 21
-19 25 -38 12 -61 14 -66 6z"/>
<path d="M5502 7085 c4 -4 3 -14 -3 -21 -7 -9 -6 -14 3 -20 7 -4 10 -4 6 1 -4
4 -3 14 3 21 7 9 6 14 -3 20 -7 4 -10 4 -6 -1z"/>
<path d="M5936 7067 c-17 -14 -27 -29 -23 -38 4 -11 6 -10 6 3 1 10 11 23 24
29 19 11 21 11 9 -3 -8 -10 -9 -19 -4 -22 6 -3 15 1 21 8 8 10 9 16 1 21 -6 3
-8 11 -5 16 9 14 2 11 -29 -14z"/>
<path d="M5452 7055 c-4 -9 -18 -17 -29 -18 -12 0 -21 -4 -21 -7 2 -18 -4 -21
-19 -9 -9 8 -14 9 -10 3 4 -7 0 -15 -9 -18 -8 -3 -12 -2 -9 4 9 15 -4 12 -20
-4 -8 -7 -12 -16 -9 -19 3 -3 -1 -16 -10 -29 -14 -21 -13 -25 9 -51 l24 -28 6
23 c3 13 7 34 9 48 5 42 17 62 31 50 9 -7 16 -6 25 5 7 8 21 15 31 15 14 0 18
7 17 25 -3 29 -4 30 -16 10z m-22 -29 c0 -2 -8 -10 -17 -17 -16 -13 -17 -12
-4 4 13 16 21 21 21 13z m-83 -67 c2 -16 -1 -19 -9 -11 -5 5 -7 15 -4 21 10
15 12 14 13 -10z"/>
<path d="M3425 7048 c-4 -10 -2 -33 4 -56 2 -7 41 20 41 29 0 6 -4 7 -10 4 -5
-3 -10 1 -10 9 0 20 -19 31 -25 14z"/>
<path d="M5270 7045 c0 -2 6 -8 13 -14 10 -8 14 -7 14 2 0 8 -6 14 -14 14 -7
0 -13 -1 -13 -2z"/>
<path d="M3513 7024 c-5 -13 -7 -13 -14 -2 -6 8 -7 -1 -4 -22 4 -27 3 -30 -4
-15 -9 18 -10 17 -8 -7 l1 -27 38 21 c38 22 42 44 6 32 -17 -5 -18 -3 -9 15 7
12 9 21 6 21 -3 0 -8 -7 -12 -16z"/>
<path d="M6916 6998 c3 -5 10 -6 15 -3 13 9 11 12 -6 12 -8 0 -12 -4 -9 -9z"/>
<path d="M5429 6983 c-13 -16 -12 -17 3 -5 14 11 16 11 11 -7 -3 -12 -10 -18
-16 -14 -6 4 -7 1 -1 -8 5 -8 9 -17 9 -21 0 -3 4 -10 9 -15 5 -4 7 -3 3 3 -7
13 21 56 32 50 4 -3 8 1 8 9 0 8 -4 15 -8 15 -4 0 -14 2 -22 5 -7 3 -20 -2
-28 -12z"/>
<path d="M4923 6976 c4 -10 3 -26 -3 -35 -5 -10 -6 -21 -3 -25 4 -3 7 -23 7
-44 1 -33 3 -37 26 -34 41 4 44 4 67 -2 32 -7 52 29 24 43 -10 6 -22 7 -26 3
-3 -4 -6 -2 -5 3 5 21 -1 29 -9 16 -11 -17 5 -55 19 -46 5 3 11 1 14 -4 7 -11
-13 -9 -31 2 -7 5 -17 5 -23 2 -10 -6 -14 11 -11 51 1 12 -5 28 -13 37 -9 9
-16 20 -16 26 0 5 -5 13 -12 17 -8 5 -9 2 -5 -10z"/>
<path d="M6567 6966 c-3 -8 0 -17 7 -19 10 -4 12 1 9 14 -6 23 -9 24 -16 5z"/>
<path d="M5086 6821 c9 -9 34 -9 34 -1 0 5 -9 8 -20 7 -10 -1 -17 -3 -14 -6z"/>
<path d="M6851 6820 c0 -8 4 -22 9 -30 12 -18 12 -2 0 25 -6 13 -9 15 -9 5z"/>
<path d="M4760 6812 c0 -2 6 -9 13 -17 11 -11 15 -10 24 4 9 14 7 17 -13 17
-13 0 -24 -2 -24 -4z"/>
<path d="M5060 6806 c0 -2 7 -7 16 -10 8 -3 12 -2 9 4 -6 10 -25 14 -25 6z"/>
<path d="M6963 6790 c-1 -11 3 -22 8 -25 5 -4 6 -11 3 -17 -4 -7 -2 -8 5 -4 9
6 9 11 1 21 -7 8 -9 19 -6 24 4 5 3 12 -2 15 -4 2 -8 -4 -9 -14z"/>
<path d="M3385 6750 c-3 -5 -1 -10 4 -10 6 0 11 5 11 10 0 6 -2 10 -4 10 -3 0
-8 -4 -11 -10z"/>
<path d="M7550 6574 c0 -14 34 -54 46 -54 8 0 14 -5 14 -11 0 -5 -5 -7 -12 -3
-7 4 -8 3 -4 -4 10 -17 26 -15 26 4 0 12 7 15 29 12 27 -4 28 -3 18 19 -11 25
-27 31 -27 11 0 -9 -2 -10 -8 -2 -7 12 -82 37 -82 28z"/>
<path d="M4704 6538 l-19 -23 23 19 c21 18 27 26 19 26 -2 0 -12 -10 -23 -22z"/>
<path d="M7550 6496 c0 -8 5 -18 12 -22 7 -5 8 -3 3 6 -6 10 -4 12 8 7 24 -9
21 0 -3 13 -16 8 -20 8 -20 -4z"/>
<path d="M7647 6484 c-11 -12 14 -34 37 -33 15 0 17 2 6 6 -8 4 -20 13 -25 20
-6 8 -14 11 -18 7z"/>
<path d="M7596 6471 c-3 -5 1 -12 10 -15 20 -8 29 -1 19 13 -8 13 -22 14 -29
2z"/>
<path d="M7583 6291 c0 -11 5 -18 9 -15 4 3 5 11 1 19 -7 21 -12 19 -10 -4z"/>
<path d="M7954 6239 c-8 -13 9 -40 22 -35 8 3 11 0 8 -8 -3 -8 -1 -17 5 -21 6
-3 11 -17 11 -30 0 -13 10 -31 23 -41 15 -11 16 -15 5 -11 -10 4 -18 3 -18 -2
0 -5 9 -11 21 -14 18 -5 20 -2 14 16 -4 12 -8 33 -10 47 -4 48 -35 106 -56
106 -11 0 -22 -3 -25 -7z"/>
<path d="M8055 6050 c3 -5 8 -10 11 -10 2 0 4 5 4 10 0 6 -5 10 -11 10 -5 0
-7 -4 -4 -10z"/>
<path d="M7920 5930 c0 -5 7 -10 16 -10 8 0 12 5 9 10 -3 6 -10 10 -16 10 -5
0 -9 -4 -9 -10z"/>
<path d="M7957 5900 c-3 -25 -1 -39 10 -47 9 -7 16 -23 16 -37 0 -17 6 -25 22
-28 l22 -5 -24 35 c-16 25 -20 38 -12 43 6 4 8 12 5 18 -4 6 -12 8 -18 5 -6
-4 -9 -3 -6 2 3 5 2 18 -2 29 -6 16 -8 14 -13 -15z"/>
<path d="M8200 5810 c0 -5 5 -10 10 -10 6 0 10 5 10 10 0 6 -4 10 -10 10 -5 0
-10 -4 -10 -10z"/>
<path d="M8205 5760 c4 -7 2 -15 -5 -20 -8 -5 -7 -9 4 -13 19 -8 23 28 4 39
-7 5 -8 3 -3 -6z"/>
<path d="M8238 5754 c-9 -15 -6 -64 4 -64 5 0 7 4 4 9 -4 5 -1 11 6 13 9 3 10
11 2 28 -6 13 -13 20 -16 14z"/>
<path d="M8175 5710 c3 -5 8 -10 11 -10 2 0 4 5 4 10 0 6 -5 10 -11 10 -5 0
-7 -4 -4 -10z"/>
<path d="M8133 5669 c-12 -30 -11 -32 3 -17 9 8 14 23 12 33 -2 12 -7 7 -15
-16z"/>
<path d="M8151 5633 c0 -5 4 -17 9 -28 8 -18 9 -17 9 8 1 15 -3 27 -9 27 -5 0
-10 -3 -9 -7z"/>
<path d="M8045 5520 c-3 -5 -2 -10 4 -10 5 0 13 5 16 10 3 6 2 10 -4 10 -5 0
-13 -4 -16 -10z"/>
<path d="M8187 5473 c6 -16 25 -13 31 5 2 6 -6 10 -16 9 -12 -1 -18 -6 -15
-14z"/>
<path d="M8245 5250 c-4 -6 -3 -10 2 -10 4 0 2 -4 -6 -9 -7 -5 -9 -11 -4 -14
5 -3 17 2 25 13 14 15 14 19 3 24 -8 3 -17 1 -20 -4z"/>
<path d="M5145 7410 c-3 -5 -2 -10 4 -10 5 0 13 5 16 10 3 6 2 10 -4 10 -5 0
-13 -4 -16 -10z"/>
<path d="M6560 7180 c-7 -19 -7 -41 1 -46 5 -3 6 -11 2 -17 -3 -7 2 -5 13 4
10 9 25 14 32 12 12 -4 12 -1 1 18 l-12 23 -10 -24 -10 -25 -7 30 c-4 17 -9
28 -10 25z"/>
<path d="M6036 6898 c3 -5 10 -6 15 -3 13 9 11 12 -6 12 -8 0 -12 -4 -9 -9z"/>
<path d="M6510 6505 c0 -9 6 -12 15 -9 8 4 15 7 15 9 0 2 -7 5 -15 9 -9 3 -15
0 -15 -9z"/>
<path d="M6685 6440 c3 -5 11 -10 16 -10 6 0 7 5 4 10 -3 6 -11 10 -16 10 -6
0 -7 -4 -4 -10z"/>
<path d="M6804 6425 c-3 -14 -11 -22 -17 -18 -5 3 -17 -3 -25 -13 -11 -14 -13
-15 -9 -3 4 12 -2 18 -21 22 -33 6 -45 -2 -15 -9 13 -4 20 -12 18 -23 -3 -19
14 -45 32 -48 7 -2 10 3 8 10 -3 6 -1 19 4 27 8 12 13 12 29 -4 11 -9 23 -28
26 -42 4 -15 14 -24 25 -24 25 0 43 -23 35 -46 -4 -13 -3 -15 3 -6 7 9 15 6
34 -14 13 -14 45 -36 71 -49 l48 -24 14 28 15 28 -39 -1 c-22 -1 -36 -5 -33
-11 2 -5 -3 -1 -11 9 -14 18 -14 22 0 44 16 24 16 25 -8 19 -23 -6 -25 -4 -20
19 3 20 0 26 -17 31 -12 3 -18 10 -14 17 11 16 10 30 -1 38 -12 8 -26 1 -26
-13 0 -6 5 -7 12 -3 7 5 8 3 3 -5 -6 -10 -11 -9 -23 3 -13 12 -13 18 -2 31 10
12 10 19 2 27 -9 9 -12 7 -12 -9 0 -22 -16 -33 -37 -26 -19 7 -16 34 3 31 10
-2 18 4 19 14 3 14 0 16 -15 8 -13 -7 -21 -7 -25 0 -11 17 -24 11 -31 -15z"/>
<path d="M6970 6340 c0 -5 7 -10 15 -10 8 0 15 5 15 10 0 6 -7 10 -15 10 -8 0
-15 -4 -15 -10z"/>
<path d="M7022 6328 c-15 -15 -16 -41 0 -36 6 2 12 14 13 26 2 26 2 25 -13 10z"/>
<path d="M7094 6292 c3 -5 1 -12 -5 -14 -7 -2 -5 -9 5 -17 14 -12 16 -11 16 7
0 12 -5 24 -12 28 -6 4 -8 3 -4 -4z"/>
<path d="M6825 6282 c-6 -6 4 -22 15 -22 4 0 10 6 13 13 5 13 -17 20 -28 9z"/>
<path d="M6055 6340 c3 -5 8 -10 11 -10 2 0 4 5 4 10 0 6 -5 10 -11 10 -5 0
-7 -4 -4 -10z"/>
<path d="M6295 6250 c3 -5 11 -10 16 -10 6 0 7 5 4 10 -3 6 -11 10 -16 10 -6
0 -7 -4 -4 -10z"/>
<path d="M6040 6202 c0 -5 7 -13 16 -16 10 -4 14 -1 12 6 -5 15 -28 23 -28 10z"/>
<path d="M6180 6176 c0 -2 7 -9 15 -16 12 -10 15 -10 15 4 0 9 -7 16 -15 16
-8 0 -15 -2 -15 -4z"/>
<path d="M5640 6170 c0 -12 -7 -20 -17 -20 -15 0 -16 -2 -3 -10 23 -15 43 -12
36 5 -3 8 -2 15 3 15 4 0 8 7 8 15 0 8 -6 15 -14 15 -7 0 -13 -9 -13 -20z"/>
<path d="M5289 5932 c5 -10 19 -18 31 -19 20 -2 20 -1 -3 18 -31 24 -41 24
-28 1z"/>
<path d="M5950 5896 c0 -2 8 -10 18 -17 15 -13 16 -12 3 4 -13 16 -21 21 -21
13z"/>
<path d="M6674 5859 c-3 -6 0 -15 7 -20 23 -14 30 -10 19 11 -12 23 -16 24
-26 9z"/>
<path d="M7705 5790 c-3 -5 -1 -10 4 -10 6 0 11 5 11 10 0 6 -2 10 -4 10 -3 0
-8 -4 -11 -10z"/>
<path d="M6380 2920 c0 -13 11 -13 30 0 12 8 11 10 -7 10 -13 0 -23 -4 -23
-10z"/>
<path d="M6050 2800 c-35 -7 -35 -7 -5 -9 17 0 37 4 45 9 17 11 11 11 -40 0z"/>
<path d="M2820 2775 c13 -14 26 -25 28 -25 3 0 -5 11 -18 25 -13 14 -26 25
-28 25 -3 0 5 -11 18 -25z"/>
<path d="M3236 2747 c3 -10 9 -15 12 -12 3 3 0 11 -7 18 -10 9 -11 8 -5 -6z"/>
<path d="M5958 2703 c7 -3 16 -2 19 1 4 3 -2 6 -13 5 -11 0 -14 -3 -6 -6z"/>
<path d="M5900 2696 c0 -2 8 -10 18 -17 15 -13 16 -12 3 4 -13 16 -21 21 -21
13z"/>
<path d="M3360 2592 c0 -18 46 -66 53 -55 3 5 -7 23 -23 38 -17 16 -30 24 -30
17z"/>
<path d="M7076 3051 c-4 -5 -2 -12 3 -15 5 -4 12 -2 15 3 4 5 2 12 -3 15 -5 4
-12 2 -15 -3z"/>
<path d="M7110 3016 c0 -2 8 -10 18 -17 15 -13 16 -12 3 4 -13 16 -21 21 -21
13z"/>
<path d="M7348 2994 c-7 -8 -22 -25 -33 -37 -11 -12 -19 -25 -18 -28 1 -4 -10
-9 -25 -13 -47 -10 -54 -19 -41 -54 7 -21 18 -32 30 -32 11 0 52 -9 93 -20 53
-14 82 -17 104 -10 17 4 31 5 31 2 -3 -20 2 -25 11 -12 9 13 12 13 24 -2 12
-17 14 -17 32 4 10 12 14 19 9 15 -6 -3 -17 -2 -25 4 -12 7 -12 9 3 9 25 0 17
22 -14 37 -13 7 -20 13 -15 13 5 0 -3 11 -18 25 -14 13 -25 30 -24 37 2 7 -3
12 -10 10 -10 -2 -10 2 0 18 7 10 9 23 5 27 -5 4 -12 1 -17 -7 -8 -13 -10 -13
-10 -1 0 19 -13 6 -16 -17 -5 -38 -17 -62 -31 -62 -13 0 -13 3 -3 15 10 12 10
15 -1 15 -10 1 -8 5 5 15 20 15 16 45 -6 45 -9 0 -8 3 2 10 12 8 11 10 -7 10
-12 0 -28 -7 -35 -16z"/>
<path d="M7150 2960 c0 -5 5 -10 11 -10 5 0 7 5 4 10 -3 6 -8 10 -11 10 -2 0
-4 -4 -4 -10z"/>
<path d="M7590 2890 c0 -5 4 -10 9 -10 6 0 13 5 16 10 3 6 -1 10 -9 10 -9 0
-16 -4 -16 -10z"/>
<path d="M7556 2772 c-3 -5 1 -15 8 -21 11 -10 14 -9 12 3 -3 21 -13 29 -20
18z"/>
<path d="M8676 2543 c-6 -14 -5 -15 5 -6 7 7 10 15 7 18 -3 3 -9 -2 -12 -12z"/>
<path d="M8696 2531 c-6 -10 10 -61 19 -61 2 0 0 12 -5 26 -13 33 -13 37 2 28
7 -4 8 -3 4 4 -9 14 -13 15 -20 3z"/>
<path d="M7860 2489 c0 -11 4 -18 10 -14 5 3 7 12 3 20 -7 21 -13 19 -13 -6z"/>
<path d="M7860 2451 c0 -6 4 -13 10 -16 6 -3 7 1 4 9 -7 18 -14 21 -14 7z"/>
<path d="M8006 2427 c3 -10 9 -15 12 -12 3 3 0 11 -7 18 -10 9 -11 8 -5 -6z"/>
<path d="M8066 2399 c-9 -15 -27 -30 -41 -33 -15 -4 -23 -11 -19 -17 4 -8 10
-7 16 2 6 10 7 7 3 -9 -4 -13 -2 -29 4 -35 6 -7 6 -18 1 -26 -9 -15 -3 -41 10
-41 5 0 6 10 4 23 -2 12 -2 16 2 10 3 -7 13 -13 22 -14 11 0 12 -2 4 -6 -6 -2
-10 -9 -6 -14 3 -5 -2 -9 -10 -9 -9 0 -16 -7 -16 -15 0 -8 0 -17 0 -20 0 -3 3
-4 8 -2 4 1 6 5 5 10 -8 21 42 2 83 -33 46 -41 64 -46 72 -20 3 7 0 10 -7 6
-6 -4 -11 -2 -11 3 0 6 4 11 9 11 5 0 17 7 25 16 9 8 16 11 16 5 0 -6 5 -11
11 -11 6 0 9 8 7 18 -3 12 0 19 8 19 8 0 13 -5 12 -11 -1 -6 3 -21 10 -33 9
-17 9 -22 -3 -26 -9 -4 -12 -1 -8 9 3 7 1 14 -5 14 -12 0 -33 -25 -31 -36 5
-29 -1 -35 -23 -23 -19 10 -18 7 6 -19 31 -32 47 -74 20 -51 -10 8 -14 8 -14
0 0 -6 -5 -11 -11 -11 -5 0 -8 4 -4 9 10 18 -15 22 -50 10 -29 -11 -37 -10
-52 3 -31 26 -43 30 -43 14 0 -10 6 -13 18 -9 9 3 14 3 10 -2 -4 -4 4 -21 17
-37 14 -16 25 -40 25 -52 0 -14 10 -28 24 -36 35 -18 108 -120 103 -142 -5
-18 -2 -19 65 -33 10 -2 21 1 24 6 8 14 57 10 78 -6 11 -8 29 -15 40 -15 12 0
38 -11 60 -24 l38 -24 46 24 c56 30 85 30 125 2 17 -13 41 -28 52 -34 11 -5
19 -18 17 -27 -5 -30 27 -18 65 24 43 48 83 71 103 59 8 -4 55 -11 103 -14 48
-3 100 -12 115 -20 15 -8 37 -20 50 -25 12 -6 22 -16 22 -22 0 -8 13 -10 39
-6 44 5 67 -4 56 -24 -6 -9 -4 -11 7 -6 25 9 49 -15 50 -50 1 -27 3 -30 15
-17 8 8 33 14 57 14 23 0 47 5 53 11 15 15 77 3 94 -18 12 -14 12 -16 0 -8
-10 5 -12 4 -7 -3 4 -7 14 -12 22 -12 8 0 14 -5 14 -12 0 -6 3 -8 7 -5 3 4 11
-1 18 -10 7 -9 19 -17 27 -19 30 -4 50 196 22 214 -6 4 -15 17 -18 30 -6 19
-10 21 -22 11 -13 -10 -14 -6 -8 31 6 38 5 43 -10 37 -10 -4 -19 -1 -22 8 -5
12 -9 12 -31 -2 -21 -14 -26 -14 -34 -2 -7 12 -10 12 -18 0 -6 -9 -11 -10 -15
-2 -4 6 -2 11 3 11 6 0 11 5 11 11 0 6 -7 8 -16 5 -19 -7 -57 21 -48 35 3 5
-2 12 -10 15 -9 3 -14 9 -12 13 3 4 -4 7 -14 8 -11 1 -22 -2 -25 -8 -3 -5 1
-6 9 -3 9 3 16 2 16 -4 0 -5 -10 -9 -22 -8 -15 1 -23 7 -22 19 2 14 -1 15 -13
6 -11 -10 -14 -10 -11 2 2 8 8 18 13 22 6 5 3 7 -7 3 -11 -3 -22 2 -28 14 -14
27 -29 25 -23 -2 l5 -23 -20 23 c-14 15 -22 18 -25 10 -4 -10 -6 -10 -6 0 -1
6 -8 12 -17 12 -8 0 -22 7 -30 15 -8 8 -22 11 -30 8 -9 -3 -20 0 -26 8 -7 11
-11 11 -15 2 -10 -27 -39 -12 -35 19 1 3 -5 9 -14 12 -8 3 -13 2 -10 -3 3 -5
0 -11 -8 -14 -23 -9 -27 33 -6 56 15 15 17 24 9 33 -6 7 -8 18 -4 23 4 7 0 8
-10 5 -10 -4 -24 2 -36 15 -18 20 -21 20 -44 5 -23 -15 -24 -15 -20 5 2 13 0
19 -6 15 -18 -11 -41 18 -34 44 5 19 3 23 -9 19 -9 -4 -16 -1 -17 6 0 7 -5 1
-10 -12 -7 -18 -12 -21 -22 -12 -8 6 -23 9 -36 6 -12 -2 -19 0 -16 4 3 5 -2
12 -11 15 -24 9 -26 8 -19 -14 5 -14 2 -20 -10 -20 -9 0 -27 -11 -40 -24 -13
-13 -26 -21 -29 -19 -3 3 -11 1 -19 -5 -8 -7 -18 -7 -27 -2 -9 6 -18 5 -23 -3
-5 -7 -5 -2 -2 12 5 16 4 21 -4 17 -6 -4 -11 -3 -11 3 0 5 -12 4 -27 -5 -33
-16 -47 -18 -38 -4 3 6 1 11 -4 11 -6 1 -15 2 -21 3 -5 0 -19 9 -31 19 -11 10
-29 19 -40 20 -10 1 -21 7 -23 14 -3 7 -12 13 -20 13 -8 0 -20 8 -26 18 -9 15
-10 14 -5 -5 5 -17 2 -23 -9 -23 -9 0 -16 6 -16 14 0 8 -7 16 -15 20 -8 3 -15
1 -15 -3 0 -5 6 -11 13 -14 6 -3 2 -4 -10 -4 -13 1 -23 7 -23 14 0 7 -7 13
-16 13 -14 0 -14 -3 -4 -15 9 -10 9 -15 1 -15 -6 0 -11 -8 -11 -17 0 -14 2
-15 9 -4 5 7 10 9 12 4 5 -13 99 -25 99 -13 0 5 -8 7 -17 4 -15 -5 -15 -4 -3
4 10 8 18 8 27 0 15 -12 18 -42 3 -33 -5 3 -18 1 -27 -4 -16 -9 -15 -11 7 -12
17 -1 20 -3 8 -6 -10 -2 -18 -14 -18 -26 0 -16 -3 -18 -12 -9 -19 19 -49 14
-55 -8 -7 -27 -27 -25 -47 5 -18 28 -13 50 10 41 8 -3 14 1 14 9 0 17 -26 21
-32 5 -2 -6 -13 -4 -26 6 -19 13 -23 23 -19 53 2 20 2 28 0 18 -3 -9 -9 -14
-15 -11 -6 4 -8 3 -5 -2 3 -6 2 -16 -4 -24 -7 -12 -9 -12 -9 3 0 10 -4 16 -9
12 -6 -3 -8 5 -6 18 4 17 0 23 -15 24 -11 1 -20 -4 -20 -13 0 -19 -7 -18 -41
6 -22 16 -33 19 -48 10 -28 -15 -39 -12 -17 5 13 10 17 23 14 49 -2 19 -1 33
3 30 5 -2 7 4 6 14 -2 27 -22 23 -41 -9z m454 -179 c0 -5 -7 -10 -15 -10 -8 0
-15 5 -15 10 0 6 7 10 15 10 8 0 15 -4 15 -10z m302 -32 c-7 -7 -12 -8 -12 -2
0 14 12 26 19 19 2 -3 -1 -11 -7 -17z m-38 -44 c3 -8 2 -12 -4 -9 -6 3 -10 10
-10 16 0 14 7 11 14 -7z m-314 2 c0 -3 -4 -8 -10 -11 -5 -3 -10 -1 -10 4 0 6
5 11 10 11 6 0 10 -2 10 -4z m620 -21 c0 -15 -6 -25 -14 -25 -19 0 -28 14 -20
34 10 25 34 19 34 -9z m-760 5 c0 -5 -4 -10 -10 -10 -5 0 -10 5 -10 10 0 6 5
10 10 10 6 0 10 -4 10 -10z m594 1 c3 -5 -1 -14 -8 -20 -12 -10 -13 -8 -9 8 6
23 9 25 17 12z m-644 -31 c0 -5 -2 -10 -4 -10 -3 0 -8 5 -11 10 -3 6 -1 10 4
10 6 0 11 -4 11 -10z m125 -115 c0 -16 -5 -30 -11 -32 -8 -3 -12 9 -12 32 0
23 4 35 12 32 6 -2 11 -16 11 -32z m1312 -470 c0 -8 -4 -12 -9 -9 -5 3 -6 10
-3 15 9 13 12 11 12 -6z"/>
<path d="M8030 2400 c0 -5 5 -10 11 -10 5 0 7 5 4 10 -3 6 -8 10 -11 10 -2 0
-4 -4 -4 -10z"/>
<path d="M8121 2374 c0 -11 3 -14 6 -6 3 7 2 16 -1 19 -3 4 -6 -2 -5 -13z"/>
<path d="M8190 2330 c0 -5 5 -10 11 -10 5 0 7 5 4 10 -3 6 -8 10 -11 10 -2 0
-4 -4 -4 -10z"/>
<path d="M9103 2175 c0 -8 9 -15 19 -15 10 0 18 5 18 11 0 5 -4 7 -10 4 -5 -3
-10 -1 -10 4 0 6 -4 11 -8 11 -5 0 -9 -7 -9 -15z"/>
<path d="M8350 2165 c0 -8 2 -15 4 -15 2 0 6 7 10 15 3 8 1 15 -4 15 -6 0 -10
-7 -10 -15z"/>
<path d="M9445 1950 c3 -5 8 -10 11 -10 2 0 4 5 4 10 0 6 -5 10 -11 10 -5 0
-7 -4 -4 -10z"/>
</g>
</svg>
